<svg t="1661003202485" class="icon" viewBox="0 0 1024 1024" version="1.1" xmlns="http://www.w3.org/2000/svg" p-id="1987" width="64" height="64"><path d="M928.3 581.2c0 1-8.4 1.9-8.4 2.8 0 1 10.2 2.1 10.2 3 0 1 2 2 2 3s-9.1 1.6-9.2 2.6c0 1 4.7 2.1 4.6 3.1 0 1-8.1 1.5-8.2 2.4-0.1 1-2 1.7-2.1 2.7-0.1 1 11 2.7 10.9 3.7-0.1 1-6.4 1.4-6.5 2.4-0.1 1 3.9 2.3 3.8 3.2-0.1 1 2.7 2.2 2.6 3.2-0.1 1-5.8 1.3-5.9 2.2-0.1 1 0.4 2 0.3 2.9-0.1 1 8 3 7.8 4-0.1 1-0.6 1.9-0.8 2.9-0.1 1-4.1 1.4-4.3 2.3-0.2 1 2.5 2.4 2.3 3.3-0.2 0.9-11.1 0-11.2 1-0.2 0.9-2.9 1.4-3.1 2.3-0.2 0.9 2.5 2.4 2.3 3.3-0.2 0.9 8.9 3.8 8.7 4.7-0.2 0.9 1.2 2.3 1 3.2-0.2 0.9-10.4-0.4-10.6 0.6-0.2 0.9 11 4.6 10.8 5.5-0.2 0.9-5.1 0.8-5.4 1.7-0.2 0.9 0.2 2.1-0.1 3-0.2 0.9-10.1-0.7-10.4 0.2-0.3 0.9-2.1 1.3-2.4 2.3-0.3 0.9 5.6 3.5 5.3 4.5-0.3 0.9-3.7 0.9-4 1.8-0.3 0.9 5.1 3.5 4.8 4.5-0.3 0.9 0.5 2.2 0.2 3.1-0.3 0.9-0.8 1.8-1.1 2.7-0.3 0.9 5.1 3.8 4.8 4.7-0.3 0.9-14.1-2.9-14.5-2-0.3 0.9 5.6 4 5.3 4.9s1 2.4 0.6 3.3c-0.3 0.9 2.3 3 2 3.9-0.3 0.9-12.5-2.9-12.9-2-0.4 0.9 10.8 6.4 10.4 7.3-0.4 0.9-5.8-0.3-6.1 0.6-0.4 0.9-0.5 1.9-0.8 2.8-0.4 0.9-7.1-1-7.5-0.2-0.4 0.9 4.9 4.3 4.5 5.1-0.4 0.9 0.6 2.4 0.2 3.3-0.4 0.9 5 4.5 4.6 5.4-0.4 0.9-6.1-0.8-6.5 0.1-0.4 0.9-0.2 2.1-0.6 2.9-0.4 0.9-3.7 0.3-4.2 1.1-0.4 0.9 7.1 5.9 6.7 6.7-0.4 0.9-12.6-4.5-13.1-3.6-0.5 0.8 10.4 7.8 9.9 8.6-0.5 0.8-8.1-2.3-8.6-1.4-0.5 0.8-1.5 1.3-2 2.2-0.5 0.8-3.9-0.1-4.4 0.8-0.5 0.8 8.4 7.2 7.9 8-0.5 0.8-6.7-1.7-7.2-0.9-0.5 0.8-2.2 0.9-2.7 1.7-0.5 0.8-5-0.9-5.5-0.1s2.8 4 2.3 4.8c-0.5 0.8-1.4 1.4-1.9 2.2-0.5 0.8 4.4 5.2 3.9 6-0.5 0.8-7.7-2.8-8.2-2-0.5 0.8-3.9-0.4-4.5 0.4-0.5 0.8 10.6 9.7 10 10.5-0.6 0.8-3.7-0.2-4.2 0.6-0.6 0.8-4.6-0.9-5.1-0.1-0.6 0.8 4.1 5.4 3.5 6.2-0.6 0.8-6.1-2.1-6.7-1.4-0.6 0.8-1.9 1-2.5 1.7-0.6 0.8-3.5-0.3-4.1 0.5-0.6 0.8 0.6 2.9 0 3.7-0.6 0.8-5-1.6-5.6-0.9-0.6 0.7 1.9 4 1.3 4.7-0.6 0.7 0.2 2.7-0.4 3.4-0.6 0.7-1.4 1.3-2 2.1-0.6 0.7-3.7-0.7-4.3 0.1-0.6 0.7 0.5 2.9-0.2 3.6-0.6 0.7-4.1-1.1-4.7-0.4-0.6 0.7-1.1 1.5-1.8 2.2-0.6 0.7 0.8 3.3 0.1 4-0.7 0.7 6.9 9 6.2 9.7-0.7 0.7-7.1-4-7.7-3.3-0.7 0.7 2.8 5.3 2.1 6-0.7 0.7-0.6 2.2-1.2 2.9-0.7 0.7-6.1-3.3-6.8-2.6-0.7 0.7-0.8 1.9-1.5 2.6-0.7 0.7 1.5 4.3 0.8 5-0.7 0.7-3.7-1-4.4-0.3-0.7 0.7-4.1-1.6-4.8-0.9-0.7 0.7-2.8-0.2-3.5 0.4-0.7 0.7 6 9.3 5.3 10-0.7 0.6-3-0.4-3.7 0.3-0.7 0.6-6.2-4-6.9-3.3-0.7 0.6-2.7-0.2-3.4 0.4-0.7 0.6 3.6 7.1 2.9 7.7-0.7 0.6 0.9 4.1 0.2 4.7-0.7 0.6-6.4-4.5-7.1-3.9-0.7 0.6-2.6-0.2-3.3 0.5-0.7 0.6 0 3-0.8 3.6-0.7 0.6-5.3-3.6-6.1-3-0.7 0.6 6.7 11.5 5.9 12.1-0.8 0.6-5.8-4.2-6.5-3.6-0.8 0.6-3.1-0.8-3.8-0.3-0.8 0.6-3.1-1-3.9-0.4-0.8 0.6-0.9 1.9-1.7 2.5-0.8 0.6 2.9 7.1 2.1 7.7-0.8 0.6-5.9-4.8-6.7-4.3-0.8 0.6 2.5 6.7 1.7 7.3-0.8 0.6-3.2-1.1-4-0.6-0.8 0.6 3.4 8.4 2.6 8.9-0.8 0.5-6.4-5.9-7.2-5.3-0.8 0.5 1.4 5.5 0.6 6-0.8 0.5-6.3-6-7.1-5.5-0.8 0.5 0.4 4.2-0.4 4.7s0.9 5 0.1 5.5-2.4-0.1-3.2 0.4c-0.8 0.5 0.3 4.2-0.5 4.7s-5.7-5.5-6.5-5c-0.8 0.5-0.2 3.4-1 3.9s-7.1-8.2-7.9-7.7c-0.8 0.5 6.4 14.7 5.6 15.2-0.8 0.5-1.5 1.3-2.4 1.8-0.8 0.5-3.6-2.4-4.5-2-0.8 0.5 0 4-0.8 4.5s-4.5-4.1-5.3-3.6c-0.8 0.5-1.4 1.5-2.2 2-0.8 0.5-5.1-5.4-5.9-4.9-0.8 0.5-0.6 2.9-1.5 3.4-0.9 0.4 2.3 8.6 1.4 9-0.9 0.4-5.9-7.4-6.8-7-0.9 0.4-3.9-3.6-4.8-3.1-0.9 0.4 3.8 12 2.9 12.4-0.9 0.4-1.3 1.8-2.1 2.3-0.9 0.4-6.1-8.4-7-8-0.9 0.4 0 4.5-0.9 4.9-0.9 0.4-1.3 1.7-2.2 2.1-0.9 0.4-1.6 1.2-2.4 1.6-0.9 0.4-0.7 3.2-1.6 3.6-0.9 0.4-5.1-6.9-6-6.5-0.9 0.4-1.7 0.8-2.6 1.1-0.9 0.4-2.1 0-2.9 0.4-0.9 0.4-2 0.1-2.9 0.5-0.9 0.4 2.8 12 1.9 12.3-0.9 0.4-6.6-11.4-7.5-11.1-0.9 0.4-0.7 3.3-1.6 3.7-0.9 0.3 1.7 9.8 0.8 10.1-0.9 0.3-5.7-9.8-6.6-9.4-0.9 0.3 2 10.8 1.1 11.1-0.9 0.3-5.5-9.5-6.4-9.2-0.9 0.3 1.4 9.7 0.5 10-0.9 0.3-4.8-8-5.7-7.7-0.9 0.3-0.6 4.1-1.5 4.4-0.9 0.3-0.8 3.5-1.8 3.8-0.9 0.3-0.9 3.3-1.9 3.6-0.9 0.3-3.3-3.9-4.2-3.6-0.9 0.3-1.6 1.2-2.6 1.5-0.9 0.3-0.5 5-1.4 5.2-0.9 0.3-4.3-7.6-5.2-7.3-0.9 0.3-1.6 1.3-2.5 1.5-0.9 0.3 0.5 8.5-0.5 8.8-0.9 0.3-1.8 1-2.7 1.3-0.9 0.3-1.2 2.9-2.2 3.2-0.9 0.3-3.9-7-4.8-6.8-0.9 0.2 0 7.7-0.9 7.9-0.9 0.2-3.8-7-4.7-6.7-0.9 0.2-2.1-0.5-3-0.3-0.9 0.2-1.7 1.1-2.6 1.3-0.9 0.2-0.9 4.4-1.9 4.6-0.9 0.2-1.7 1.4-2.6 1.6-0.9 0.2-3-4.4-3.9-4.2-0.9 0.2-3.3-6.4-4.3-6.2-0.9 0.2 0.1 9.6-0.9 9.7-0.9 0.2-0.8 5.7-1.8 5.9-0.9 0.2-1.8 0.8-2.8 1-0.9 0.2-4.3-12-5.2-11.8-0.9 0.2 0.3 12.4-0.6 12.6-0.9 0.2-4.3-13-5.2-12.9-0.9 0.2 0.3 13.1-0.6 13.2-0.9 0.2-2.9-5.6-3.9-5.4-0.9 0.2-2.8-5.1-3.7-5-0.9 0.2-2-0.4-2.9-0.3-0.9 0.1-1.2 5-2.1 5.2-1 0.1-3-7.3-3.9-7.2-1 0.1-1.5 2.9-2.5 3.1-1 0.1-0.6 10-1.6 10.2-1 0.1-1.5 3.7-2.5 3.8-1 0.1-2-0.1-2.9 0.1-1 0.1-3.3-11.9-4.2-11.8-1 0.1-1.1 7.7-2.1 7.8-1 0.1-2.6-6.1-3.5-6-1 0.1-1.7 2.4-2.6 2.5-1 0.1-1.8 1.3-2.8 1.3-1 0.1-2.2-3.4-3.2-3.3-1 0.1-1.1 10.2-2.1 10.2-1 0.1-2.6-9.2-3.6-9.1-1 0.1-1.8 2.3-2.7 2.4-1 0.1-1.6 5.8-2.5 5.9-1 0.1-2.1-2.8-3.1-2.7-1 0-2.4-10.6-3.4-10.5-1 0-1.8 2.1-2.8 2.1-1 0-1.6 7.7-2.6 7.7s-1.7 7.2-2.7 7.2c-1 0-2-0.2-2.9-0.2-1 0-2-1.3-3-1.3s-2.1-14.2-3.1-14.2-1.8 9-2.8 9c-1 0-1.9 0.9-2.9 0.9s-1.9-8-2.9-8-2 7.8-2.9 7.7c-1 0-1.9-2.7-2.9-2.7s-1.8-5.1-2.8-5.1c-1 0-2.1 5.7-3 5.7-1 0-2.1 5.4-3.1 5.4s-1.8-4.9-2.7-4.9c-1 0-2.1 3.8-3.1 3.8s-1.8-2.2-2.8-2.2c-1 0-1.6-6.3-2.5-6.4-1-0.1-1.8-1.8-2.8-1.8-1-0.1-2.3 6.5-3.3 6.5-1-0.1-1.6-5.1-2.5-5.2-1-0.1-2.7 9.8-3.7 9.7-1-0.1-1.5-5.6-2.4-5.7-1-0.1-1.1-8.9-2.1-9-1-0.1-2.7 8.1-3.6 8-1-0.1-1.7-2.3-2.7-2.4-1-0.1-2.4 4.4-3.4 4.3-1-0.1-1.2-6.6-2.1-6.7-1-0.1-2 0.9-3 0.8-1-0.1-1.8-1.2-2.7-1.3-1-0.1-3.1 8.5-4 8.4-1-0.1-1.3-5.2-2.2-5.3-1-0.1-2.7 4.9-3.6 4.8-1-0.1-1.6-2.5-2.6-2.6-1-0.1-0.6-8.5-1.6-8.7-1-0.2-2.5 3.4-3.4 3.2-0.9-0.2-1.4-3.2-2.4-3.3-0.9-0.2-2 0.4-3 0.3-0.9-0.2-2.4 2.4-3.3 2.2-0.9-0.2-3.3 7.2-4.3 7-0.9-0.2 0.6-13.4-0.3-13.5-0.9-0.2-2.6 3.4-3.5 3.2-0.9-0.2-0.9-5-1.9-5.2-0.9-0.2-3.2 5.9-4.1 5.7-0.9-0.2-1.3-3.2-2.2-3.4-0.9-0.2-2.4 1.8-3.3 1.6-0.9-0.2-1-4.3-1.9-4.5-0.9-0.2-4.5 10.9-5.5 10.6-0.9-0.2-1.6-1.8-2.5-2-0.9-0.2 1.5-14 0.6-14.2-0.9-0.2-5.6 14.1-6.5 13.9-0.9-0.2 1.6-13.8 0.7-14.1-0.9-0.2-1.8-0.7-2.7-0.9-0.9-0.3-3.9 7.2-4.9 6.9-0.9-0.3-0.8-4.2-1.7-4.4-0.9-0.3-2.3 1.2-3.3 0.9-0.9-0.3-3.3 4.4-4.2 4.2-0.9-0.3-0.5-4.9-1.4-5.2-0.9-0.3 0.4-7.8-0.5-8.1-0.9-0.3-5 9.5-5.9 9.2-0.9-0.3 1.4-10.5 0.5-10.8-0.9-0.3-3 3.1-3.9 2.8-0.9-0.3-3.8 5.4-4.7 5.1-0.9-0.3-1.4-1.9-2.3-2.2-0.9-0.3-3.6 4.3-4.5 4-0.9-0.3 1.9-11 1-11.3-0.9-0.3-2-0.1-2.9-0.5-0.9-0.3-3 2.6-3.9 2.3-0.9-0.3-1-2.7-1.9-3-0.9-0.3-1.5-1.4-2.4-1.7-0.9-0.3-4.8 6.8-5.6 6.5-0.9-0.4-2.8 1.7-3.7 1.4-0.9-0.4 3-12.4 2.1-12.8-0.9-0.4-2.6 1.2-3.4 0.8-0.9-0.4-3.1 2.4-4 2-0.9-0.4-1.4-1.6-2.3-1.9-0.9-0.4-3.2 2.6-4.1 2.2-0.9-0.4 2-9.1 1.1-9.5-0.9-0.4-3.2 2.6-4.1 2.2-0.9-0.4-5.1 6.4-5.9 6-0.9-0.4 0.3-5.2-0.6-5.6-0.9-0.4-5 6-5.9 5.6-0.9-0.4 0.5-5.5-0.4-5.9-0.9-0.4-1.3-1.7-2.2-2.2-0.9-0.4 0.8-5.9 0-6.3-0.9-0.4-3.6 2.8-4.4 2.4-0.9-0.4-1.1-2.1-1.9-2.5-0.9-0.4-4.9 5.2-5.8 4.7-0.8-0.5-0.9-2.4-1.8-2.9-0.8-0.5-3.1 1.7-4 1.2-0.8-0.5 1.1-6.1 0.3-6.5-0.8-0.5-5.1 5-5.9 4.5-0.8-0.5 6-14.5 5.2-14.9-0.8-0.5-5.4 5.5-6.2 5-0.8-0.5 1.8-6.9 1-7.3-0.8-0.5-3.7 2.6-4.6 2.1-0.8-0.5-5.9 5.9-6.7 5.4-0.8-0.5 4.5-10.9 3.6-11.4-0.8-0.5-1.2-1.7-2-2.2-0.8-0.5-3.7 2.3-4.5 1.8-0.8-0.5-6.5 6.5-7.3 6-0.8-0.5 5.6-12 4.8-12.5-0.8-0.5-10.2 11.9-11 11.3-0.8-0.5 5.5-11.6 4.7-12.1-0.8-0.5-1.3-1.5-2.1-2s-3.2 1.3-4 0.7c-0.8-0.6-1.1-1.8-1.8-2.4-0.8-0.6-1.8-0.8-2.5-1.4-0.8-0.6-6 4.9-6.7 4.4-0.8-0.6 1.3-5 0.5-5.6-0.8-0.6 1.2-4.8 0.5-5.4-0.8-0.6-6.6 5.5-7.3 4.9-0.8-0.6 2.9-6.9 2.2-7.5-0.8-0.6-2-0.5-2.8-1.1-0.8-0.6 1.7-5.2 1-5.8-0.8-0.6-8.3 7.2-9 6.6-0.7-0.6-3.1 0.7-3.8 0.1-0.7-0.6 4.6-8.6 3.9-9.2-0.7-0.6-1.3-1.4-2-2-0.7-0.6-3.1 0.7-3.8 0.1-0.7-0.6-7.5 5.6-8.2 5-0.7-0.6 5.1-8.7 4.4-9.3-0.7-0.6 2.1-5.2 1.4-5.8-0.7-0.6-4.5 2.1-5.2 1.5-0.7-0.7-1.8-0.8-2.5-1.5s-3.7 1.2-4.4 0.5c-0.7-0.7-4.6 2-5.3 1.4-0.7-0.7 6.9-9.9 6.2-10.6-0.7-0.7-2.1-0.5-2.8-1.2-0.7-0.7-7.9 5.2-8.6 4.5-0.7-0.7-2.6-0.2-3.2-0.9-0.7-0.7-0.7-2-1.4-2.7-0.7-0.7-3.3 0.5-4-0.2-0.7-0.7 4-6.5 3.4-7.2-0.7-0.7 1.2-3.7 0.6-4.5-0.7-0.7-3.5 0.6-4.2-0.1-0.6-0.7 4-6.2 3.4-6.9-0.6-0.7-10.7 6.9-11.3 6.2-0.6-0.7 4.9-6.8 4.3-7.5-0.6-0.7-9 5.2-9.6 4.4-0.6-0.7 7.4-8.8 6.8-9.5-0.6-0.7-10.6 6.3-11.2 5.5-0.6-0.7 1.1-3.4 0.4-4.1-0.6-0.7-2.1-0.9-2.7-1.6-0.6-0.8 3.3-5.1 2.7-5.8-0.6-0.8-0.7-1.9-1.3-2.6-0.6-0.8-3.3 0.1-3.9-0.7-0.6-0.8 3.8-5.2 3.2-6-0.6-0.8 2.6-4.2 2.1-5-0.6-0.8-14.1 7.8-14.6 7-0.6-0.8 2.8-4.4 2.2-5.1-0.6-0.8 6.1-6.6 5.6-7.4-0.5-0.8-6.5 2.1-7 1.3s-1.4-1.4-1.9-2.2c-0.5-0.8 4-4.9 3.5-5.7-0.5-0.8 0.1-2.3-0.4-3.1-0.5-0.8-1.3-1.4-1.8-2.2-0.5-0.8-8.2 2.8-8.7 2-0.5-0.8 7.8-7 7.3-7.8-0.5-0.8-1.7-1.1-2.2-2-0.5-0.8-3.5-0.1-4-0.9s-4.3 0.3-4.8-0.5-3.5-0.3-3.9-1.1c-0.5-0.8 8.1-6.6 7.6-7.4-0.5-0.8-0.6-1.8-1.1-2.6-0.5-0.8-1.8-1.1-2.3-2-0.4-0.9-5.2 0.6-5.7-0.3-0.4-0.9 2.4-3.3 2-4.2-0.4-0.9-3.3-0.5-3.7-1.3-0.4-0.9-10.2 2.8-10.6 1.9-0.4-0.9 9.6-6.6 9.2-7.5-0.4-0.9-2-1.2-2.4-2-0.4-0.9-9.5 2.1-9.9 1.3-0.4-0.9 4.5-4.1 4.1-5-0.4-0.9 0.6-2.3 0.2-3.2-0.4-0.9 1.5-2.7 1.2-3.6-0.4-0.9-1.4-1.5-1.8-2.4-0.4-0.9-9.3 1.6-9.7 0.7-0.3-0.9 11.4-6.4 11.1-7.3-0.3-0.9-10.7 1.9-11 1-0.3-0.9 6.3-4.3 6-5.2-0.3-0.9-1.5-1.5-1.8-2.4-0.3-0.9 3.5-3.2 3.2-4.1-0.3-0.9 0.8-2.2 0.5-3.1-0.3-0.9-7.9 0.5-8.2-0.4-0.3-0.9 0.5-2.1 0.2-3.1-0.3-0.9-6.5-0.1-6.8-1-0.3-0.9 9.1-4.6 8.8-5.5-0.3-0.9-11.2 1.1-11.5 0.2-0.3-0.9 4.2-3.1 4-4.1-0.2-0.9 3.2-2.8 3-3.7-0.2-0.9 1.4-2.3 1.2-3.2-0.2-0.9 2.7-2.5 2.4-3.5-0.2-0.9-15.2 1.4-15.4 0.5-0.2-0.9 3.8-2.8 3.6-3.8-0.2-0.9 0-2-0.2-2.9-0.2-0.9-1.9-1.6-2.1-2.6-0.2-0.9-3.5-1.4-3.7-2.3-0.2-0.9 8.4-3.4 8.3-4.4-0.2-0.9-4.8-1.2-4.9-2.1-0.1-0.9 5-2.7 4.8-3.7-0.1-0.9 1.2-2.1 1.1-3-0.1-1-11.2-0.5-11.3-1.4-0.1-1 13.3-3.6 13.2-4.5-0.1-1-12.5-0.5-12.6-1.5-0.1-1-1.5-1.8-1.6-2.8-0.1-1 12-3.1 11.9-4-0.1-1 1.3-2 1.2-2.9-0.1-1-11-1.1-11.1-2.1-0.1-1 7.9-2.4 7.8-3.4-0.1-1 1.3-2 1.2-2.9 0-1-12.6-1.4-12.7-2.3 0-1 5.1-2.2 5.1-3.1 0-1 10-2.1 9.9-3.1 0-1-9.5-1.8-9.5-2.7 0-1-5.8-1.9-5.8-2.9s6.1-1.9 6.1-2.9 8.6-1.8 8.6-2.7c0-1-10.2-2.2-10.1-3.1 0-1-3-2.1-2.9-3 0-1 9.2-1.5 9.3-2.5 0-1-9.6-2.5-9.6-3.4 0.1-1 14.5-1 14.5-2 0.1-1-8.8-2.6-8.8-3.5 0.1-1 3-1.7 3.1-2.6 0.1-1-7.6-2.7-7.5-3.6 0.1-1 12.4-0.7 12.5-1.6 0.1-1-7.8-2.8-7.7-3.8 0.1-1 9.1-0.8 9.2-1.8 0.1-1-12.8-3.6-12.7-4.6 0.1-1 12.4-0.2 12.6-1.1 0.1-1-3.3-2.4-3.1-3.4 0.2-0.9 0.7-1.8 0.8-2.8 0.2-0.9-2.1-2.3-2-3.3 0.2-0.9 5.4-0.9 5.6-1.9 0.2-0.9-0.9-2.1-0.8-3 0.2-0.9-3.9-2.7-3.7-3.7 0.2-0.9 1.7-1.6 1.9-2.5 0.2-0.9-0.6-2.1-0.4-3 0.2-0.9 5.8-0.6 6-1.5 0.2-0.9-4-2.9-3.8-3.9 0.2-0.9 0.5-1.9 0.7-2.8 0.2-0.9-1.4-2.4-1.2-3.3 0.3-0.9 9.7 0.7 10-0.2 0.3-0.9 0-1.9 0.3-2.8 0.3-0.9 0-1.9 0.2-2.9 0.3-0.9-8.2-4.5-7.9-5.4 0.3-0.9-0.1-2.1 0.2-3 0.3-0.9 5.1-0.3 5.4-1.3 0.3-0.9-5.4-3.9-5.1-4.8 0.3-0.9 1.3-1.6 1.6-2.5 0.3-0.9-0.2-2.2 0.1-3.1 0.3-0.9 3.9-0.6 4.2-1.5 0.3-0.9-2.8-3.1-2.4-4 0.3-0.9-1-2.5-0.6-3.4 0.4-0.9 14.8 3.9 15.1 3 0.4-0.9-14.6-8.1-14.2-9 0.4-0.9 12.9 3.4 13.3 2.5 0.4-0.9-0.5-2.3-0.1-3.1 0.4-0.9-0.2-2.2 0.2-3 0.4-0.9 1.3-1.5 1.7-2.4 0.4-0.9 0.1-2.1 0.5-2.9 0.4-0.9-6.8-5.4-6.4-6.3 0.4-0.9 7.3 1.4 7.7 0.6 0.4-0.9 4.6 0.2 5-0.7 0.4-0.9-2.2-3.3-1.8-4.1 0.4-0.9-6.4-5.6-5.9-6.4 0.5-0.8 12.2 4.4 12.7 3.6 0.5-0.8-6.1-5.5-5.6-6.4 0.5-0.8 8.5 2.6 8.9 1.7 0.5-0.8-3.6-4.2-3.1-5.1 0.5-0.8 2.1-1 2.6-1.8s-7.7-6.9-7.2-7.7c0.5-0.8 8.8 3.1 9.3 2.3 0.5-0.8-7.4-6.9-6.9-7.7 0.5-0.8 7.5 2.4 8 1.6 0.5-0.8-4.1-5-3.6-5.8 0.5-0.8 10.4 4.5 10.9 3.7 0.5-0.8 1.9-1 2.4-1.8s-8-7.8-7.4-8.5c0.5-0.8 10.3 4.8 10.8 4 0.6-0.8-8.2-8.1-7.6-8.9 0.6-0.8 2.3-0.8 2.8-1.6 0.6-0.8-1.8-3.8-1.2-4.5 0.6-0.8 2.1-0.9 2.6-1.7 0.6-0.8 12.8 7.3 13.4 6.6 0.6-0.8-0.4-2.7 0.1-3.5 0.6-0.8 0.1-2.3 0.7-3.1 0.6-0.8 2.8-0.2 3.4-0.9 0.6-0.7-9.7-10.4-9.1-11.1 0.6-0.7 9.4 5.2 10 4.5 0.6-0.7-2.2-4.3-1.6-5.1 0.6-0.7-2.7-4.9-2.1-5.6 0.6-0.7 6.6 3.2 7.3 2.5 0.6-0.7 3.2 0.3 3.8-0.5 0.6-0.7-7.3-9.1-6.6-9.9 0.6-0.7 6.4 3.2 7 2.5 0.7-0.7-3-5.5-2.4-6.2 0.7-0.7 2-0.9 2.6-1.6 0.7-0.7 6.9 3.9 7.5 3.2 0.7-0.7-7.9-1.2-7.2-1.9-0.8-0.5 7-2.6 6.2-3.1-0.8-0.5-0.8-2.2-1.6-2.7s-0.1-3.2-0.9-3.7-3.3 1.4-4.1 0.9c-0.8-0.6 1.1-4.5 0.3-5.1-0.8-0.6-1.2-1.5-1.9-2.1-0.8-0.6-4.7 2.9-5.5 2.3-0.7-0.6-5.4 3.4-6.2 2.8-0.7-0.6-2.6-0.1-3.3-0.8-0.7-0.6-0.1-2.9-0.8-3.5-0.7-0.6-3.6 0.9-4.3 0.2-0.7-0.7-1.7-1.2-2.3-1.9-0.7-0.7 0.6-3.5 0-4.2-0.7-0.7 0.6-3.4 0-4.1-0.7-0.7-4.3 1.2-4.9 0.5-0.6-0.7-1.4-1.5-2-2.2-0.6-0.7 9.2-10.3 8.6-11-0.6-0.7-8 4.1-8.6 3.4-0.6-0.7-5.7 1.9-6.2 1.1-0.6-0.8-1.3-1.6-1.9-2.4-0.6-0.8 7.7-8 7.1-8.7-0.6-0.8-4.2 0.7-4.8-0.1-0.5-0.8-0.9-1.7-1.4-2.5-0.5-0.8-2.4-0.8-2.9-1.6s-6 1.3-6.5 0.5 0.8-2.8 0.3-3.7c-0.5-0.8 10.2-7.9 9.7-8.7-0.5-0.8-0.3-1.9-0.7-2.7-0.4-0.8-4.1 0.1-4.5-0.8-0.4-0.9 1-2.5 0.6-3.4-0.4-0.9-4.7 0.2-5.1-0.7-0.4-0.9-10.3 2.4-10.7 1.5-0.4-0.9 0.6-2.5 0.2-3.4-0.4-0.9 4.4-3.9 4.1-4.8-0.3-0.9-0.5-1.9-0.8-2.8-0.3-0.9-7.8 0.6-8.1-0.3-0.3-0.9 13.8-6.6 13.5-7.5-0.3-0.9-13.2 2.1-13.5 1.1-0.3-0.9 10.5-5 10.3-5.9-0.3-0.9-9.6 0.6-9.8-0.4-0.2-0.9 8.6-4.1 8.3-5-0.2-0.9-6.2-0.5-6.4-1.5-0.2-0.9-1.1-1.8-1.3-2.7-0.2-0.9-2.9-1.5-3.1-2.4-0.2-0.9 5.4-2.8 5.2-3.8-0.1-0.9 0.7-2 0.5-2.9-0.1-0.9-1.1-1.8-1.2-2.7-0.1-1-0.4-1.9-0.5-2.8-0.1-1 6-2.4 5.9-3.3-0.1-1-9.2-1.3-9.3-2.2-0.1-1-1.7-1.9-1.7-2.8 0-1 4.4-2.1 4.4-3 0-1-3.3-1.9-3.3-2.9s6.8-1.8 6.9-2.8c0-1-8.7-2.2-8.7-3.1 0-1 3.5-1.8 3.5-2.7 0.1-1 5.6-1.5 5.6-2.5 0.1-1-0.1-1.8 0-2.8 0.1-1-5.5-2.5-5.4-3.4 0.1-1-2.9-2.3-2.8-3.3 0.1-0.9 3.4-1.5 3.5-2.4 0.1-0.9 1.2-1.8 1.4-2.7 0.2-0.9 0.3-1.9 0.4-2.8 0.2-0.9 7.7-0.3 7.9-1.2 0.2-0.9-3.8-2.7-3.6-3.6 0.2-0.9-3.3-2.7-3-3.7 0.2-0.9-4-3.1-3.7-4 0.3-0.9 5.3-0.5 5.6-1.4 0.3-0.9-1.4-2.5-1.1-3.4 0.3-0.9 10 1.3 10.3 0.4 0.3-0.9-8-4.8-7.7-5.6 0.3-0.9-5-4-4.7-4.9 0.3-0.9 1.7-1.5 2.1-2.4 0.4-0.9 12.6 3.1 12.9 2.3 0.4-0.9 0.9-1.6 1.3-2.4 0.4-0.9 0.4-1.8 0.8-2.7 0.4-0.9-4.8-4.4-4.4-5.2 0.4-0.9-4.5-4.5-4-5.3 0.4-0.8 1.3-1.6 1.8-2.4 0.5-0.8 3.3-0.4 3.8-1.3 0.5-0.8-0.2-2.4 0.3-3.2 0.5-0.8 11.6 4.9 12.1 4.1 0.5-0.8 1.2-1.3 1.7-2.1s-3.4-4.4-2.8-5.2c0.5-0.8-0.9-2.9-0.4-3.7 0.6-0.8-3-4.6-2.4-5.3 0.6-0.8 7.6 3.3 8.2 2.5 0.6-0.8 4.1 0.9 4.7 0.2 0.6-0.7-2.7-4.5-2.1-5.3 0.6-0.7-6.3-7.9-5.7-8.6 0.6-0.7 8.6 4.9 9.2 4.2 0.6-0.7-4.8-7-4.2-7.7 0.6-0.7 7.1 4 7.8 3.4 0.7-0.7 4.9 2.3 5.6 1.6 0.7-0.7-7.9-10.8-7.2-11.4 0.7-0.7 10.5 8.4 11.2 7.7 0.7-0.6-2.2-5.1-1.5-5.7 0.7-0.6 0.2-2.6 1-3.2 0.7-0.6 1.4-1.3 2.2-1.9 0.7-0.6 0.2-2.9 0.9-3.5 0.7-0.6 3.7 1.6 4.5 1 0.8-0.6 0.3-2.8 1-3.4 0.8-0.6-1.6-5.6-0.8-6.2 0.8-0.5 1.1-2.1 1.8-2.6 0.8-0.5 6.7 6.6 7.5 6.1 0.8-0.5-1-5.1-0.2-5.7 0.8-0.5 0.2-3.5 1-4s3.6 2.3 4.4 1.8c0.8-0.5 5.5 6 6.3 5.6 0.8-0.5 1.2-1.6 2-2.1 0.8-0.4-3.7-11.5-2.8-11.9 0.9-0.4 7.3 10.6 8.1 10.2 0.9-0.4-2.1-9-1.2-9.4 0.9-0.4 4.1 4.6 5 4.2 0.9-0.4 1.9-0.3 2.8-0.7 0.9-0.4 2.7 1.8 3.5 1.4 0.9-0.3-0.4-6.5 0.5-6.8 0.9-0.3 1.5-1.5 2.4-1.8 0.9-0.3 1.7-1 2.6-1.3 0.9-0.3 0.7-4.6 1.6-4.8 0.9-0.3 5.2 11.2 6.1 10.9 0.9-0.3-1.5-13-0.5-13.3 0.9-0.2 4.5 10.5 5.5 10.2 0.9-0.2 2 0.5 2.9 0.3 0.9-0.2 1.4-2.4 2.3-2.6 0.9-0.2 0.2-9.5 1.2-9.7 0.9-0.2 2.1 0.1 3-0.1 0.9-0.1 3.6 11.9 4.6 11.8 0.9-0.1 1.3-4.5 2.2-4.6 0.9-0.1 2.3 4.5 3.2 4.4 0.9-0.1 0.7-14.5 1.6-14.6 1-0.1 2.3 3.8 3.2 3.7 1-0.1 2.3 9 3.3 9s1.8-1 2.7-1.1c1 0 1.8-6.7 2.8-6.7 1 0 1.9 2.9 2.8 2.9 1 0 2.1-4.6 3-4.6 1 0 2.1-2 3-1.9 1 0.1 2.1-1.7 3.1-1.6 1 0.1 1.1 9.8 2.1 9.9 1 0.1 2-1.3 3-1.2 1 0.1 1.6 2.1 2.6 2.2 0.9 0.1 2.6-4.7 3.6-4.6 0.9 0.1 1.5 2.7 2.5 2.9 0.9 0.2 3-5.6 4-5.4 0.9 0.2 0.5 7.6 1.4 7.8 0.9 0.2 3.5-6.8 4.5-6.6 0.9 0.2-0.8 11.5 0.1 11.7 0.9 0.2 3.6-6.3 4.5-6 0.9 0.3-0.9 9.9 0 10.1 0.9 0.3 3.9-6.5 4.8-6.2 0.9 0.3 3.5-4.5 4.4-4.2 0.9 0.3 2.5-1 3.4-0.7 0.9 0.3-0.3 6.6 0.6 6.9 0.9 0.3 3.5-3.5 4.4-3.2 0.9 0.4-1.3 8.2-0.5 8.6 0.9 0.4-0.2 4.9 0.7 5.3 0.9 0.4 7.4-11.6 8.3-11.2 0.9 0.4-3.2 10.9-2.3 11.4 0.9 0.4 4-3.8 4.9-3.4 0.8 0.4-1.2 6.2-0.4 6.6 0.8 0.5 4.5-4.3 5.3-3.9 0.8 0.5 0.5 2.8 1.4 3.3 0.8 0.5 6.6-7.1 7.4-6.6 0.8 0.5 0.4 3.1 1.2 3.6 0.8 0.5 3.8-2.1 4.6-1.5 0.8 0.5 0.2 3.3 1 3.8 0.8 0.6-1.4 5.3-0.6 5.9 0.8 0.6 2.1 0.4 2.9 0.9 0.8 0.6 4-2 4.8-1.4 0.7 0.6-1.8 5.3-1 5.9 0.7 0.6 0.1 2.8 0.9 3.4 0.7 0.6 5.6-3.4 6.3-2.8 0.7 0.6-3 6.2-2.3 6.9 0.7 0.6 3.7-1.2 4.4-0.5 0.7 0.7 3.6-0.8 4.3-0.2s-7.1 9.6-6.5 10.3c0.7 0.7 9.9-6.8 10.6-6.1 0.6 0.7 2.8 0.2 3.5 0.9 0.6 0.7-3.4 5.6-2.8 6.3 0.6 0.7 3.8-0.7 4.4 0.1 0.6 0.7-0.6 3 0 3.7 0.6 0.7-4.9 6.2-4.3 6.9 0.6 0.8 0.5 1.9 1 2.6 0.6 0.8 9.3-4.4 9.9-3.6 0.5 0.8 2.5 0.7 3 1.5s-1.5 3.4-1 4.2c0.5 0.8 1.6 1.3 2.1 2.1s-1 2.9-0.5 3.7c0.5 0.8-4.4 4.7-3.9 5.5 0.5 0.8 0.7 1.7 1.1 2.5 0.5 0.8 12.4-4.4 12.8-3.6 0.4 0.8-7.9 6.2-7.5 7.1 0.4 0.9 3.2 0.5 3.6 1.4 0.4 0.9 8.2-1.6 8.6-0.8 0.4 0.9-10 6.5-9.6 7.3 0.4 0.9 2.2 1.1 2.6 1.9 0.4 0.9 8.9-1.4 9.3-0.5 0.3 0.9 3.1 1 3.5 1.9 0.3 0.9-6.1 4.2-5.8 5.2 0.3 0.9-2.2 2.7-1.9 3.6 0.3 0.9 0.8 1.7 1 2.6 0.3 0.9 3.5 1 3.8 1.9 0.3 0.9-1.1 2.3-0.9 3.2 0.2 0.9 1.6 1.6 1.8 2.5 0.2 0.9-2.8 2.6-2.6 3.5 0.2 0.9 4.2 1.1 4.4 2 0.2 0.9-6.1 3-6 4 0.2 0.9 8.3 0.6 8.4 1.5 0.1 0.9-5.2 2.7-5.1 3.6 0.1 0.9 2.2 1.6 2.3 2.6 0.1 0.9 8.4 1.1 8.5 2.1 0.1 0.9 0.3 2 0.4 3 0.1 1-4.9 2.3-4.8 3.3 0.1 1-8.2 2.3-8.2 3.2 0 1 0.4 1.8 0.4 2.8 0 1-0.2 1.8-0.2 2.8 0 1-0.2 1.9-0.2 2.9s-1.4 1.8-1.4 2.8c0 1 4.7 4.4 4.6 5.4 0.9-0.2 3.2-6.3 4.1-6.4 0.9-0.2 1.6-1.7 2.6-1.9 0.9-0.2 3.5 9.1 4.5 8.9 0.9-0.2 1.9 0.1 2.9 0 0.9-0.2 2.2 1.8 3.1 1.7 0.9-0.2 1.4-2.9 2.4-3 0.9-0.1 0.6-8.4 1.6-8.6 0.9-0.1 2.7 5 3.6 4.9 0.9-0.1 2.7 5.6 3.6 5.4 0.9-0.1 0.3-12.1 1.2-12.2 0.9-0.1 1.6-2.9 2.5-3 0.9-0.1 3.4 12.2 4.4 12.1 0.9-0.1 1.9 0.1 2.8 0 0.9-0.1 0.6-11.9 1.5-12 0.9-0.1 3.2 12.6 4.2 12.5 0.9-0.1 1.6-2.6 2.6-2.7 0.9-0.1 1.5-4.6 2.4-4.7 0.9-0.1 1.9 0.2 2.9 0.1 0.9-0.1 2.5 7.1 3.4 7 0.9-0.1 1.4-6.7 2.3-6.7 0.9-0.1 1.4-6.7 2.4-6.7 0.9-0.1 2 1 3 0.9 0.9-0.1 2 1.2 3 1.2 1-0.1 2.3 8 3.3 8s1.5-8.8 2.4-8.8c1 0 1.8-2.5 2.8-2.6 1 0 2 2.3 3 2.3s1.8-4 2.8-4c1 0 2 2.5 3 2.5s1.9 0.1 2.9 0.1 1.9 1.2 2.9 1.2 2 5.8 2.9 5.8c1 0 1.9-10.3 2.8-10.3 1 0 1.9 15.8 2.8 15.8 1 0 2-9.4 2.9-9.4 1 0 2-1.9 2.9-1.8 1 0 1.8 5 2.8 5.1 1 0 2-4.4 3-4.4s2-1 2.9-1c1 0 2.1-4 3.1-4s1.5 10.6 2.4 10.7c1 0 2.3-7 3.2-7 1 0 2-1.3 3-1.2 1 0.1 1.3 10.2 2.3 10.3 1 0.1 2.2-4.8 3.2-4.8 1 0.1 2.4-6.7 3.4-6.7 1 0.1 1.8 2.4 2.7 2.4 1 0.1 2.1-2 3.1-1.9 1 0.1 1 10.2 2 10.3 1 0.1 2.7-7.8 3.6-7.7 1 0.1 1.6 3.8 2.5 3.9 1 0.1 1.3 6.1 2.2 6.2 1 0.1 1.7 1.9 2.7 2 1 0.1 1.5 3.1 2.5 3.2 1 0.1 2.7-6.5 3.7-6.3 1 0.1 2.4-3.4 3.3-3.2 1 0.1 1.4 4.2 2.3 4.4 1 0.1 2.5-4.1 3.5-4 1 0.1 0.7 8.5 1.6 8.6 1 0.1 2.4-3 3.3-2.8 0.9 0.2 2.2-2.2 3.1-2.1 0-1.1 5.6-2.2 5.5-3.3 0-1.1-9-2.1-9-3.1s3.5-1.9 3.5-2.9-2.2-2-2.1-2.9c0-1 10.5-1.4 10.5-2.3 0.1-1-10.1-2.5-10-3.5 0.1-1-4.1-2.3-4-3.3 0.1-1 0.9-1.9 1-2.9 0.1-1 12.7-0.3 12.8-1.3 0.1-0.9-12.3-3.7-12.2-4.6 0.1-0.9 10-0.3 10.2-1.3 0.2-0.9-7.9-3.4-7.7-4.3 0.2-0.9-2.7-2.6-2.5-3.5 0.2-0.9 8.2-0.2 8.5-1.1 0.2-0.9 7.8 0 8.1-0.9 0.2-0.9-14.6-5.8-14.3-6.7 0.3-0.9 14.3 2.1 14.6 1.2 0.3-0.9-7-4.1-6.8-5 0.3-0.9-3.5-3.2-3.1-4.1 0.3-0.9 11.7 2.1 12 1.2 0.3-0.9-7.7-4.9-7.4-5.7 0.3-0.9 3.4-0.7 3.8-1.6 0.4-0.9-5.6-4.5-5.2-5.3 0.4-0.9 12.2 3.2 12.6 2.4 0.4-0.9-8.1-5.8-7.7-6.7 0.4-0.9 4.1-0.2 4.5-1 0.4-0.9 1.7-1.3 2.1-2.1 0.4-0.8-1.5-3-1-3.8 0.5-0.8 0.8-1.8 1.2-2.6 0.5-0.8 4.8 0.6 5.3-0.2s-4.5-5-4-5.8c0.5-0.8-2.3-3.9-1.8-4.7 0.5-0.8 8.9 3.5 9.4 2.7 0.5-0.8 3.5 0.2 4.1-0.6 0.6-0.8 1.4-1.2 2-2 0.6-0.8 1.5-1.1 2.1-1.9 0.6-0.8-8.2-8.8-7.6-9.6 0.6-0.7 11.5 6.9 12.1 6.1 0.6-0.7-3.3-5.2-2.7-5.9 0.6-0.7 0.2-2.3 0.9-3 0.6-0.7 3.9 1 4.6 0.3 0.6-0.7-4.7-7.1-4-7.8 0.7-0.7 7.2 4.4 7.9 3.7 0.7-0.7-5.9-8.8-5.3-9.5 0.7-0.7 8.6 6.3 9.3 5.6 0.7-0.6-3.8-7-3.1-7.7 0.7-0.6 0.3-2.7 1-3.4 0.7-0.6 8.1 6.6 8.8 6 0.7-0.6 3.5 1.5 4.3 0.9 0.7-0.6-6.9-12-6.1-12.5 0.8-0.6 3.7 1.7 4.5 1.1 0.8-0.6-0.1-3.5 0.7-4.1 0.8-0.5 8.7 9.3 9.5 8.7 0.8-0.5 1.5-1 2.3-1.5 0.8-0.5-3.3-8.7-2.5-9.2 0.8-0.5 0.9-2.3 1.7-2.8 0.8-0.5 7.7 9.5 8.6 9.1 0.8-0.5-4.1-11.1-3.2-11.6 0.8-0.5 2.2-0.1 3-0.6 0.8-0.4 5.4 6.6 6.3 6.1 0.9-0.4 0-4.1 0.9-4.6 0.9-0.4 0.2-4 1.1-4.4 0.9-0.4 0.8-3 1.7-3.4 0.9-0.4 3 2.1 3.9 1.7 0.9-0.4 3.9 4.9 4.8 4.5 0.9-0.3 0.3-4.6 1.2-4.9 0.9-0.3-0.4-7 0.5-7.4 0.9-0.3 4.4 7.3 5.3 7 0.9-0.3-1-9.9-0.1-10.2 0.9-0.3 4.8 9.6 5.7 9.3 0.9-0.3 0.9-3.8 1.9-4.1 0.9-0.2 2.4 1.7 3.3 1.5 0.9-0.2 0.4-6.9 1.4-7.1 0.9-0.2 3.3 6.8 4.3 6.6 0.9-0.2 2.7 4.6 3.6 4.5 0.9-0.2-0.1-12.5 0.8-12.6 0.9-0.1 3.6 11.9 4.5 11.7 0.9-0.1 1.3-4 2.3-4.1 0.9-0.1 1.2-6.6 2.2-6.6 0.9-0.1 2.5 6.5 3.4 6.4 1-0.1 1.7-1.8 2.7-1.8 1-0.1 1.8-0.7 2.8-0.7 1 0 1.9 1.9 2.9 1.9s1.8-9.8 2.8-9.8c1 0 1.9 6.2 2.9 6.3 1 0 1.9 0.1 2.9 0.1s1.7 3.4 2.7 3.5c1 0.1 2.3-6.3 3.3-6.2 1 0.1 1.8 2 2.7 2 1 0.1 2.1-1.7 3.1-1.6 1 0.1 2.7-5.4 3.6-5.3 0.9 0.1 2 0.8 2.9 1 0.9 0.1 0.8 7.2 1.8 7.4 0.9 0.2 1.8 1.1 2.7 1.2 0.9 0.2 0.8 5.2 1.8 5.4 0.9 0.2 1.7 0.7 2.6 0.9 0.9 0.2 3.6-7 4.6-6.7 0.9 0.2 0.3 6.2 1.2 6.5 0.9 0.3 2.6-2.2 3.5-1.9 0.9 0.3 4.4-7.7 5.3-7.4 0.9 0.3-1.2 9.9-0.2 10.2 0.9 0.3 4.5-6.9 5.4-6.6 0.9 0.3-0.9 8.1 0 8.5 0.9 0.3 4.9-7.2 5.8-6.9 0.9 0.4-1.6 8.9-0.7 9.3 0.9 0.4-0.6 5.9 0.2 6.3 0.9 0.4 1.9 0.1 2.7 0.5 0.9 0.4 2.9-1.9 3.8-1.5 0.9 0.4 1.7 0.7 2.5 1.2 0.8 0.4 6.1-7.4 6.9-6.9 0.8 0.5-2.3 8.1-1.5 8.6 0.8 0.5 0.1 3.4 1 3.9 0.8 0.5 7.6-8.8 8.4-8.3 0.8 0.5-1.4 5.9-0.6 6.4 0.8 0.5-2.6 7.2-1.8 7.8 0.8 0.5 6-5.4 6.7-4.9 0.8 0.6-3.2 7.7-2.5 8.2 0.8 0.6 10.5-10.8 11.2-10.2 0.8 0.6-0.2 3.5 0.5 4.1 0.7 0.6-3.8 7.7-3 8.3 0.7 0.6 4.3-2.2 5-1.6 0.7 0.6 5.9-3.8 6.6-3.1 0.7 0.6-8.7 12.4-8 13.1 0.7 0.6 2.3 0.2 2.9 0.8 0.7 0.7 9.5-7 10.2-6.3 0.7 0.7-6 8.6-5.4 9.3 0.7 0.7 3.4-0.7 4 0 0.6 0.7 3.6-0.7 4.2 0 0.6 0.7 0.3 2.3 0.9 3 0.6 0.7 4.1-0.9 4.7-0.2 0.6 0.7 4.2-0.9 4.8-0.1 0.6 0.7-10.6 10.7-10 11.4 0.6 0.8 8.4-4 8.9-3.2 0.6 0.8 4.8-1 5.3-0.2s-0.5 2.8 0 3.5c0.5 0.8-5.2 5.7-4.7 6.5 0.5 0.8 5.5-1.3 6-0.4 0.5 0.8-1.5 3.2-1 4 0.5 0.8 7.7-2.2 8.1-1.4 0.5 0.8-3.6 4.3-3.1 5.1 0.5 0.8-5.2 4.9-4.7 5.7 0.4 0.8 8.9-2.4 9.3-1.6 0.4 0.9-6 5-5.6 5.9 0.4 0.9 12-3.4 12.4-2.5 0.4 0.9 1.3 1.7 1.7 2.6 0.4 0.9-5.8 4.6-5.5 5.5 0.4 0.9-3.8 3.5-3.5 4.4 0.3 0.9 3.2 0.8 3.5 1.7 0.3 0.9-5 3.7-4.7 4.6 0.3 0.9 2.2 1.1 2.5 2.1 0.3 0.9 2.5 1.1 2.8 2.1 0.3 0.9 3.9 0.8 4.2 1.8 0.3 0.9 2.3 1.4 2.5 2.3 0.2 0.9 5.3 0.8 5.5 1.7 0.2 0.9-14 5.1-13.8 6 0.2 0.9 13.1-0.7 13.3 0.2 0.2 0.9 0.1 2 0.2 3 0.2 0.9-11.5 3.8-11.4 4.7 0.1 0.9 8.8 0.6 8.9 1.6 0.1 0.9 5 1.4 5.1 2.3 0.1 0.9 0.2 2 0.3 3 0.1 0.9-7.4 2.6-7.3 3.5 0.1 1 7.2 1.5 7.2 2.4 0.1 1-2.8 2.1-2.7 3.1 0 1 1.5 1.9 1.6 2.9 0 1-2.2 2-2.2 2.9 0 1-4.8 1.9-4.9 2.8 0 1-1 1.8-1.1 2.8 0 1 1 1.9 0.9 2.8-0.1 1 8 2.5 7.9 3.4-0.1 1-4.2 1.6-4.3 2.6-0.1 1 6.1 2.6 6 3.6-0.1 0.9-1.5 1.9-1.7 2.8-0.1 0.9-6.2 1.1-6.4 2-0.1 0.9 6.5 3.1 6.3 4-0.2 0.9-11.6-0.2-11.8 0.8-0.2 0.9 8.4 3.7 8.2 4.6-0.2 0.9 0.5 2.2 0.3 3.1-0.2 0.9 1.5 2.4 1.2 3.4-0.2 0.9-10.9-0.8-11.1 0.1-0.3 0.9 9.8 4.8 9.5 5.7-0.3 0.9-9.1-0.7-9.4 0.2-0.3 0.9 0.5 2.2 0.2 3.1-0.3 0.9-6.8-0.4-7.1 0.5-0.3 0.9-0.3 1.8-0.6 2.7-0.3 0.9-2.1 1.1-2.5 2-0.4 0.9 1.3 2.5 1 3.4-0.4 0.9 4.3 3.9 3.9 4.8-0.4 0.9-4 0.2-4.4 1.1-0.4 0.9-3.6 0.3-4 1.1-0.4 0.9 7.9 6.1 7.5 6.9-0.4 0.8-8.7-2.5-9.2-1.7s6.4 5.7 5.9 6.5c-0.5 0.8-6.9-1.8-7.3-1-0.5 0.8 5.5 5.6 5 6.4-0.5 0.8-7.6-2.6-8.1-1.8s0.7 2.7 0.2 3.5c-0.5 0.8-3.9-0.5-4.4 0.3-0.5 0.8 3.6 4.9 3 5.6-0.6 0.8-1.4 1.3-2 2.1-0.6 0.8-4.4-1.1-5-0.3-0.6 0.7 4.4 6 3.8 6.7-0.6 0.7-6.1-2.7-6.7-1.9-0.6 0.7 7.8 9.4 7.2 10.1-0.6 0.7-4.3-1.2-5-0.5-0.6 0.7-4.7-1.8-5.4-1.1-0.7 0.7-2.9-0.2-3.5 0.5-0.7 0.7-1.2 1.4-1.9 2.1-0.7 0.7 3.7 6.7 3 7.3-0.7 0.6-4.3-1.8-5-1.2-0.7 0.6 3.2 6.7 2.5 7.3-0.7 0.6-10.7-9.7-11.5-9.1-0.7 0.6-1.9 0.5-2.6 1.1-0.7 0.6 0.4 3.4-0.3 4-0.8 0.6-2.2 0.1-3 0.6-0.8 0.6-0.5 5.7-1.3 6.2 0.7 0.7 7.7-2.3 8.4-1.7 0.7 0.7-1.9 4.6-1.2 5.3 0.7 0.7-1.8 4.5-1.2 5.1 0.7 0.7 6.3-3.4 7-2.7 0.7 0.7-7 9.3-6.4 10 0.7 0.7 7.5-4.5 8.2-3.8 0.7 0.7 2.6 0.2 3.2 0.9 0.6 0.7 5.8-2.6 6.4-1.9 0.6 0.7-10.2 11.7-9.6 12.4 0.6 0.7 9.9-6.2 10.5-5.4 0.6 0.7 0.1 2.5 0.7 3.2 0.6 0.7-5.1 6.8-4.5 7.6 0.6 0.7 8.5-4.7 9.2-3.9 0.6 0.7 0.2 2.4 0.8 3.1 0.6 0.7 0.7 1.9 1.3 2.7 0.6 0.7 5.8-2.1 6.4-1.4 0.6 0.8-8.2 8.8-7.6 9.6 0.6 0.8-1 3.1-0.4 3.9 0.6 0.8 9.2-4.6 9.8-3.8 0.6 0.8-4.9 6-4.3 6.8 0.6 0.8 11.3-5.9 11.9-5.1 0.6 0.8 1.2 1.6 1.7 2.4 0.6 0.8-4.4 5.5-3.8 6.2 0.5 0.8-4.8 5.6-4.3 6.4 0.5 0.8-0.9 2.8-0.3 3.6 0.5 0.8 10.3-4.6 10.8-3.8 0.5 0.8 3.2 0.2 3.7 1.1 0.5 0.8 0.5 2 1 2.8 0.5 0.8 0.6 2 1.1 2.8 0.5 0.8-2.1 3.6-1.6 4.4 0.5 0.8-1.6 3.2-1.1 4 0.5 0.8-1 2.8-0.5 3.6 0.5 0.8-2 3.3-1.5 4.1 0.5 0.8 10-3.6 10.5-2.7 0.5 0.8-7.3 6.2-6.8 7.1 0.5 0.8 1.9 1.1 2.4 1.9 0.5 0.8 10.4-3.4 10.8-2.6 0.4 0.8-10.1 7.4-9.6 8.3 0.4 0.8 11.1-3.5 11.5-2.7 0.4 0.9-0.8 2.6-0.4 3.4 0.4 0.9 6.1-0.8 6.5 0 0.4 0.9-6.5 5.3-6 6.1 0.4 0.9 4.7-0.1 5.1 0.8 0.4 0.9-8.9 6.2-8.5 7 0.4 0.9 4 0.3 4.4 1.1 0.4 0.9 8.4-1.5 8.7-0.7 0.4 0.9-4.9 4.2-4.6 5.1 0.4 0.9 2.4 1.1 2.7 2 0.4 0.9-7.7 5.1-7.3 6 0.4 0.9 4.9 0.1 5.3 1 0.3 0.9 2.6 1 2.9 1.9 0.3 0.9 2.8 1 3.1 1.9 0.3 0.9 6.9-0.4 7.2 0.5 0.3 0.9-14.2 7-13.9 7.9 0.3 0.9 2.8 1 3.1 1.9 0.3 0.9 3.2 0.9 3.5 1.8 0.3 0.9-2.5 2.7-2.2 3.7 0.3 0.9 3.7 0.8 3.9 1.8 0.3 0.9-4.4 3.2-4.1 4.2 0.3 0.9 10.6-1.1 10.8-0.1 0.3 0.9-1 2.3-0.8 3.2 0.2 0.9 4.3 0.9 4.5 1.8 0.2 0.9-3.4 2.9-3.2 3.8 0.2 0.9-2.3 2.5-2.1 3.5 0.2 0.9 4.1 1 4.3 1.9 0.2 0.9-2.5 2.5-2.3 3.5 0.2 0.9-6.1 3.2-5.9 4.1 0.2 0.9 12.2-0.6 12.4 0.4 0.2 0.9-4.5 2.8-4.3 3.8 0.2 0.9 6.7 0.7 6.9 1.7 0.2 0.9-3.2 2.5-3.1 3.5 0.2 0.9-9.5 3.4-9.3 4.4 0.1 0.9 12 0.1 12.2 1 0.1 0.9 3.4 1.5 3.6 2.4 0.1 0.9-2.8 2.3-2.7 3.3 0.1 0.9 2.4 1.7 2.5 2.6 0.1 0.9-4.4 2.5-4.3 3.4 0.1 1 2.6 1.7 2.7 2.6 0.1 1-11.3 3-11.3 3.9 0.1 1 11.7 0.9 11.8 1.9 0.1 1-1.2 2-1.2 3 0.1 1-5.9 2.3-5.9 3.2 0.1 1 8.3 1.5 8.4 2.4 0 1 1 1.9 1 2.9s1.6 1.9 1.6 2.9-1.7 2-1.7 3-1.6 2-1.6 2.9c0.5-0.4-0.9 0.6-0.9 1.5z" fill="#BAD4E5" p-id="1988"></path><path d="M525.8 946.5c-0.9 0-1.7-0.1-2.3-0.1h-0.4-0.1c-2.7 0-4.8-1-6-1.7-1.8-0.5-3.7-1.6-5.2-3.9h-0.5c-1.2 0-2.4-0.2-3.3-0.5-0.8 0.2-1.6 0.3-2.6 0.3-1.4 0-2.5-0.3-3.6-0.7-1.7 2.1-4.4 4-8.3 3.9-1.8-0.1-3.2-0.5-4.5-1.2h-1.4c-3.9-0.2-6.4-2.2-7.7-3.7-0.2-0.2-0.5-0.3-0.7-0.5-3.2 4.8-7.8 4.8-9.4 4.7-4.6-0.4-7.1-3.2-8.5-5.9-1.6 0.9-3.6 1.4-6 1.1-1.6-0.2-2.9-0.6-4-1.3-3.2 2.8-6.8 2.7-8.1 2.5-0.9-0.1-1.7-0.3-2.4-0.6-1.1 0.2-2.2 0.2-3.5 0.1-3.9-0.6-6.2-3-7.5-4.7-1-0.8-1.7-1.7-2.3-2.7-2 3.2-5.4 6.4-11.1 5.4-2.3-0.4-7.4-2.2-8.3-9.6-0.6 0-1.2-0.1-1.8-0.2-0.7-0.1-1.3-0.3-1.9-0.6-3.9 5.9-9.1 5.4-11.3 4.9-1.9-0.5-3.3-1.3-4.4-2.2-1.6 0.3-3.1 0.1-4.2-0.2-2.6-0.7-6.5-2.6-7.5-8.3-0.3-0.1-0.6-0.2-0.8-0.3-2.1 1.3-4.8 2-8.2 1-2.5-0.7-4.1-2.1-5.3-3.7-1.2 0-2.2-0.3-2.8-0.5-0.8-0.3-2.5-0.9-4-2.4-0.7 0.1-1.3 0.1-2.1 0-2.3 1.5-5.4 2.5-9.2 1.2-2-0.7-6.1-2.9-6.8-8.9-1.1 0.7-2.1 1.1-3.1 1.4-1.9 1.1-5.6 2.7-10 0.9-2-0.8-6-3.1-6.3-9-1.7 0.3-3.6 0.1-5.7-0.8-0.4-0.2-1-0.5-1.7-1-1.9 0.7-4 0.8-6.3-0.1-2.2 0.8-4.7 0.9-7.6-0.5-4.8-2.3-5.8-6.7-5.9-9.9-2.5 1.2-5.6 1.7-9.1-0.2-0.3-0.1-0.5-0.3-0.7-0.4-1.6 0-3.3-0.3-5.1-1.3-0.4-0.2-0.8-0.4-1.1-0.7-1.4-0.1-3-0.5-4.6-1.4-2.1-1.2-5-3.7-5.1-8.4-2 0.3-4.1-0.1-6.5-1.5-1.1-0.7-2.8-2-3.9-4.3-2.6 0.2-4.7-0.6-5.9-1.2-3 0.5-5.4-0.6-7-1.6-1.9-1.3-5.7-4.8-4.1-11.5-2.6 0.8-5.6 0.7-8.7-1.6-1.8-1.3-2.9-3-3.5-4.6-1-0.3-2-0.9-3-1.7-2.2-1.7-3.3-3.6-3.7-5.6-2.2 0.3-5.8 0.4-9.1-2.3-1.5-1.2-2.4-2.5-3-3.8-3.8 0.3-6.5-1.7-7.4-2.5-1.2-1.1-4.7-4.8-3-10.8-2.7 0.4-6.1 0.2-9.1-2.7-1-0.9-2.4-2.7-2.9-5.3-1.7-0.4-3.8-1.2-5.6-3.1-1.8-0.4-3.8-1.2-5.5-3.1-2.9-3.1-3.2-6.4-2.5-9.4-2.9-0.5-4.9-2.1-5.8-3.2-3-0.6-4.8-2.5-5.5-3.3-0.3-0.3-0.6-0.8-0.9-1.3-1.7-0.8-2.9-2-3.6-2.8-1.6-2-2.2-4.1-2.4-6-2.3-2.9-2.5-5.9-1.9-8.4-0.2-0.3-0.5-0.5-0.7-0.8l-0.1-0.1c-5 0.6-7.9-2.1-9.4-4.1-3.4-4.7-1.6-9.5-0.2-12.1-0.4-0.4-0.8-0.9-1.2-1.5-1.1-1.7-1.6-3.3-1.7-4.8-2.2-0.5-4.2-1.9-5.8-4.5-0.7-1.1-2.1-4-1.2-7.6-2.2-0.6-4.9-2-6.6-5.1-0.7-1.3-2.5-5.5 0.2-10.1-0.3-0.3-0.6-0.7-0.9-1.1-0.2 0-0.4 0.1-0.5 0.1-8.7 1.8-12-3.7-12.8-5.5-0.5-1.1-1.2-3-1-5.3-1.3-1.2-2-2.5-2.3-3.2-1.4-3.1-1.1-5.9-0.1-8.1-3.9-1.4-5.5-4.6-6-5.9-0.5-1.4-1.2-4-0.1-6.9-1.5-4.6 0.4-8.1 2.8-10.5-0.6-0.5-1.1-1.1-1.6-1.8-3.2-0.7-6.7-2.5-8.1-7.2-0.1-0.3-0.2-0.7-0.3-1.1-1.5-1.6-2.2-3.3-2.5-4.4-0.8-3-0.2-5.5 0.8-7.5-3.9-1.6-5.2-4.8-5.7-7-0.5-2.5-0.2-4.6 0.6-6.3-1.4-1.3-2.5-3.1-3-5.7-0.2-1.3-0.5-4.8 2-8.1-3.2-2.2-4-5.4-4.2-7-0.1-1.1-0.2-2.7 0.4-4.5-0.7-1.2-1.3-2.7-1.5-4.6-0.2-1.6-0.1-4.7 2.3-7.5-0.2-0.7-0.3-1.3-0.3-1.8V601c-3-2.4-3.6-5.7-3.7-7.4-0.1-2.5 0.6-4.5 1.7-6.1-1.2-1.5-2-3.5-2-6.1 0-3.1 1.2-5.4 2.8-7-0.7-1.4-1.2-3.1-1.1-5.2 0-0.5 0.1-1.2 0.3-2.1-0.6-1.7-0.6-3.2-0.6-4 0.1-1.7 0.6-4.2 2.5-6.2-0.9-1.6-1.4-3.5-1.2-5.9 0.1-1.4 0.7-3.8 2.6-5.8-1.4-2.4-1.3-4.9-1.1-6.3 0.3-2.2 1.7-7.1 8.2-8.6 0-0.7 0-1.5 0.2-2.3 0.3-1.5 0.7-2.7 1.4-3.7-0.5-1.5-0.6-3.2-0.2-5.2 0.3-1.3 0.8-2.4 1.3-3.4 0-0.7 0.1-1.6 0.3-2.4 0.4-1.8 1.1-3.2 2.1-4.3 0-0.3 0.1-0.6 0.2-0.9-0.6-1.7-1-4-0.3-6.7 0.3-1 1-3.1 3-4.9-0.8-2-0.8-3.9-0.6-5.3 0-1 0-2.7 0.6-4.7 0-0.1 0.1-0.2 0.1-0.3-0.5-1.7-0.5-3.7 0.3-5.9 0.3-0.9 0.7-1.7 1.1-2.3 0.1-1 0.2-2.2 0.7-3.4 0.3-0.7 0.6-1.4 1-2-0.5-1.8-0.8-4.4 0.3-7.2l0.3-0.6c-0.4-2.1 0.1-4 0.7-5.6 0.9-2 3.4-6.2 9.8-6.2h0.1c-1.6-2.6-2.2-5.8-0.4-9.6 1.1-2.2 2.5-3.6 4.1-4.4-0.4-1.9-0.2-4.1 1.1-6.5 0.9-1.8 3.4-5.2 8.7-5.3-3-5-1-9.4-0.1-10.7 0.2-0.4 0.6-0.9 1.1-1.4 0.3-2 1-3.4 1.5-4.1 1.2-1.9 2.6-3.1 4.2-3.8 0.1-0.2 0.2-0.3 0.3-0.5 0.7-1.1 2.2-2.9 4.6-3.9 0.4-1.3 1-2.3 1.4-3 0.4-0.6 1-1.3 1.8-2 0.3-1 0.8-1.9 1.2-2.5-0.1-2.1 0.3-4.4 2-6.7 1.5-2 3.3-3.1 4.5-3.7 1.2-1 2.8-1.8 4.8-2-0.9-3.8 0.7-6.7 2.1-8.4 0.6-0.8 2.2-2.4 4.6-3.2 0.4-1.1 1-2.1 1.9-3.1 0.6-0.7 1.3-1.3 2-1.8 0.1-1.8 0.7-3.4 1.4-4.5-0.2-0.1-0.3-0.1-0.5-0.2-1.7-0.2-4.3-0.7-6.6-2.8-0.4-0.3-0.7-0.7-1-1-1.4-0.4-2.9-1.1-4.3-2.4-0.1-0.1-0.2-0.2-0.4-0.3-0.6-0.4-1.4-1.1-2.2-1.9-2-2-2.8-4.2-3-6.2-0.8-0.5-1.6-1.1-2.3-2-0.2-0.2-0.4-0.5-0.7-0.7-0.5-0.5-1-1.1-1.5-1.6-0.6-0.7-1.5-1.9-2-3.5-1.6-0.6-3.3-1.6-4.6-3.5-0.2-0.3-0.4-0.5-0.6-0.8-0.5-0.6-1-1.2-1.4-1.7-0.8-1.1-2.7-4.2-1.7-8.4-2.6-0.4-5.4-1.6-7.3-4.9-2-3.4-1.6-6.7-1.2-8.7 0-1.5 0.3-3.1 1.2-4.9-7.5 0.6-10.3-4.5-11-6.1-1.1-2.6-1-4.9-0.7-6.5-1.8-1-3.3-2.7-4.2-5.4-0.6-1.6-1-4 0-6.6 0-0.1 0-0.1-0.1-0.2-0.4-1.4-0.9-4 0.4-6.8-0.3-1.1-0.6-3.6 0.5-6.3-1.4-1.3-2.7-3.2-3.1-5.8-0.9-5.1 1.8-8.4 4.4-10.3-0.1-0.4-0.2-0.9-0.3-1.4-1.2-1-1.9-2.1-2.5-3.1-1.1-1.3-2.7-3.7-2.8-7-0.1-2.1 0.4-3.8 1.1-5.2 0-0.3 0-0.7-0.1-1-1.2-1.6-1.9-3.6-1.8-6.3 0.1-3.4 1.7-5.8 3.4-7.4-1.5-1.9-2.9-4.6-2.4-8.3 0.6-4.2 3.2-6.5 5.3-7.8 0-0.2 0.1-0.5 0.1-0.7 0.2-1 0.5-1.9 0.9-2.7-2.1-2.2-4.5-5.7-3.1-10.6 0.8-2.9 2.4-4.7 4.3-5.9-1.8-2.4-3.1-5.8-1.5-10 0.9-2.4 2.4-3.9 3.4-4.8 1-1.4 2.7-2.9 5.3-3.7-0.9-2.4-1.2-5.2 0.5-8.4 0.7-1.3 1.5-2.3 2-2.9l0.1-0.1c1-1.6 2.3-2.8 3.5-3.5 0.1-0.3 0.3-0.6 0.5-0.9 0.9-1.5 3-4.2 7-4.8-0.5-2.5-0.4-5.4 1.7-8.2 0.5-0.7 1.6-2 3.4-3-1-4.5 1.3-7.7 2.2-8.8 0.6-0.8 2.2-2.3 4.7-3.1 0.2-0.2 0.4-0.5 0.6-0.7 0.6-0.6 1.9-1.8 3.9-2.6 0.6-2.1 1.9-3.5 2.7-4.3 1.6-1.5 5.4-4.2 10.9-2 0.6-1.7 1.6-3.6 3.6-5.2 0.2-0.2 0.5-0.4 0.8-0.5 0-2.2 0.6-4.6 2.5-6.7 0.6-1.2 1.8-2.9 3.9-4.3 0.9-0.6 3.2-1.9 6.2-1.7 0.7-0.8 1.5-1.5 2.6-2.2 2-1.2 3.9-1.5 5.7-1.5 1.1-3.2 3.6-4.8 5-5.5 1.6-0.8 5.2-2 9.1 0.1 2.7-0.7 5-0.2 7 0.8 0.5-0.5 1.2-1 1.9-1.4 0.5-0.4 1.1-0.9 1.9-1.4 0.8-2.7 2.7-6.2 7.2-7.5 0.5-0.1 1.1-0.3 1.8-0.4 1.5-1.2 3.1-1.8 4.1-2.1 1.5-0.4 4.3-0.7 7.2 0.8 2-1.9 4.3-2.5 5.3-2.7 1.5-0.3 2.7-0.2 3.6-0.2h0.2c1.2-0.1 3-0.1 4.8 0.6 2.1-2.8 5.1-3.5 7.1-3.7 5.3-0.4 8.4 2.9 10 5.2 0.9-0.2 1.9-0.3 2.9-0.3 0.4-0.3 0.8-0.5 1.2-0.7 0.9-0.7 2.2-1.7 3.8-2.3 1.5-1 4.1-2.5 7.5-2.2 1.6 0.1 6.3 0.9 8.7 6.4 0.4-0.1 0.9-0.1 1.4-0.1 2-1.8 4.9-3.1 8.7-2.4 1.1 0.2 2.1 0.6 2.9 1 1-0.1 2.1 0 3.3 0.3 1.8 0.4 5.5 1.8 7.1 6.2 1-0.5 2.2-0.9 3.5-1 1.7-0.6 4.5-1.2 7.7 0 2.4 0.9 3.9 2.2 5 3.8 0.1 0 0.2 0.1 0.3 0.1 0.7 0.3 2 0.9 3.2 2.1 2.5-0.4 4.6 0.3 5.8 0.9 1.8 0.9 5.4 3.2 5.8 8.5 5.4-3.7 10.1-1.4 11.5-0.5 0.2 0.1 0.5 0.3 0.7 0.5 1.7 0 3.6 0.5 5.5 1.8 3.3 2.3 4.3 5.5 4.7 7.7 1.3 0.3 2.7 0.9 4 2 1.9 1.5 2.9 3.2 3.4 5 1 0.4 2.1 1 3.1 2 1.4 1.3 2.3 2.7 2.8 4.1 1.3 0.5 2.7 1.2 3.9 2.5 0.5 0.5 1 1.1 1.6 2 1.9 0.3 4.4 1.2 6.4 3.5 2.3 2.5 2.8 5.2 2.6 7.6 1.3 2 1.7 4 1.8 5.7 0.6 0.2 1.1 0.5 1.6 0.8 1.6 0.5 4.3 1.7 6.1 4.5 1.7 2.5 2 5.1 1.7 7.2 0.5 0.9 0.8 1.8 1 2.7 5.2 0.2 7.6 3.6 8.5 5.4 0.3 0.7 0.9 2 1.1 3.7 1.5 0.9 2.9 2.4 3.9 4.5 0.5 1.1 1.2 3.1 0.8 5.5 1.9 1 4 2.8 5.2 5.9 2 5.5-0.8 9.3-3.6 11.8 0.4 0.7 0.7 1.4 0.9 2.2 0.4 1.4 0.5 2.8 0.3 3.9 0.3 0.6 0.5 1.4 0.7 2.1 0.2 0.7 0.2 1.4 0.3 2 0.7 1.1 1.3 2.3 1.6 3.9 0 0.3 0.1 0.5 0.1 0.8 1.7 2 2.2 4.2 2.4 5.1 0 0.2 0.1 0.5 0.1 0.7 2.8 1.4 5.2 3.7 5.6 8.1 0 0.2 0.1 0.5 0.1 0.8 0.1 0.7 0.2 1.5 0.3 2.4 0.1 1.8-0.2 3.4-0.7 4.7 0.2 0 0.4-0.1 0.6-0.1 1.3-0.2 2.4-0.2 3.5 0 1.3-1.9 3.7-4.4 7.8-4.9 1.3-0.2 3.6-0.2 5.8 1 1.2-0.5 2.3-0.7 3.1-0.8 2.1-0.2 6.7-0.1 9.8 5h2c1.4-3 3.9-6 8.8-6.3 2.5-0.2 4.6 0.5 5.8 1.1 0.7 0.1 1.3 0.3 1.9 0.5 1.5-1.4 3.8-2.9 7-3h0.4c1.4-1 3.2-1.7 5.5-1.7 3.2-0.1 5.6 1.2 7.3 2.6 2.7-3.1 6.2-3.4 7.5-3.4 2.4 0 6 0.7 8.4 4.6h0.5c1.1 0 2 0.2 2.9 0.4 1.7-2.3 4.5-4.8 9.2-4.6 1.2 0 4 0.4 6.4 2.6 0.8-0.1 1.6-0.2 2.5-0.1 0.6 0 1.5 0.1 2.6 0.5 1.6-1.1 3.7-1.8 6.4-1.6 1.1 0.1 2.1 0.3 3 0.7 0.9-0.2 1.9-0.2 2.9-0.1 1.1 0.1 3.7 0.6 6 2.7 5.4 0.7 7.9 4.9 8.9 7.2 0.1 0.2 0.3 0.3 0.4 0.5 1.8-1.4 4.3-2.5 7.6-2-1.8-1.8-3.2-4.5-2.9-8.2 0.2-2 0.8-3.5 1.2-4.4 0.1-0.5 0.3-1 0.5-1.5-0.3-1.4-0.2-2.6 0-3.5 0.1-0.6 0.3-1.7 0.9-2.9-0.9-1.8-1.4-4.1-0.8-6.7 0.2-0.9 0.7-2.7 2.2-4.4-0.4-1.9-0.2-3.6 0.2-4.9 0.5-1.8 1.6-4.3 4.3-5.9 0.1-0.8 0.2-1.7 0.5-2.6 0.4-1.2 1.3-3.2 3.3-4.7-0.9-2.1-1.1-4.7 0.2-7.5 0.6-1.5 2.1-4.1 5.3-5.4 1.2-2.1 2.8-3.4 4.5-4.2 0.2-0.8 0.5-1.7 1-2.5 0.1-0.1 0.1-0.3 0.2-0.4 0.2-0.5 0.5-1.2 0.9-2-1.3-2.5-3-7 0-11.7 0.8-1.2 3.4-4.5 8.4-4.6-0.5-3.5 1.1-6.2 2.1-7.5 1.2-1.5 4-4.2 8.6-3.8-0.1-2.3 0.6-4.7 2.8-7.1 0.3-3.2 2.2-5.4 3-6.2 0.7-0.7 2.5-2.2 5.1-2.7 0.6-1.1 1.4-2.2 2.5-3.1 0.7-0.6 2.2-1.7 4.3-2.2 0.9-1.9 2.2-3.1 3.1-3.8 1.3-1 2.6-1.6 3.9-1.9 0.5-0.5 1-0.9 1.6-1.3 1.4-1 4.3-2.5 8-1.6 0.8-1.2 1.9-2.5 3.7-3.6 0.8-0.5 2.1-1.1 3.7-1.3 0.7-0.6 1.4-1.1 2-1.4 2.1-1.1 4.1-1.4 5.3-1.5 0.9-0.2 1.9-0.4 3-0.3 0.9-1.9 2.6-4.1 5.5-5.4 1.8-0.8 3.6-1 5.1-0.8 1-2.3 2.8-4.4 6-5.5l0.9-0.3c1.7-1.9 3.8-2.7 4.7-3 1.3-0.4 5.1-1.1 8.7 1.4 1.1-0.9 2.5-1.6 4.3-1.9 1.9-0.4 3.5-0.3 4.9 0.1 1.6-1.1 3.3-1.6 4.4-1.7 1.5-0.2 4.3-0.3 6.9 1.4 0.8-0.3 1.6-0.5 2.6-0.6 2.7-0.3 4.8 0.4 6.4 1.5 2.8-5 7.4-5.5 9-5.5 4 0 6.6 1.9 8.2 4.2 1.2-0.4 2.5-0.6 4.1-0.5 1.9-2.6 5.1-5.4 10.1-4.7 1.8 0.2 3.2 0.8 4 1.2 5 1.1 6.9 5 7.8 8.4 1.6-0.6 3.5-0.7 5.7-0.1h0.2c2.4-2.4 5.8-4.2 10.4-2.7 1 0.3 3.3 1.2 5 3.5 0.2 0.1 0.4 0.1 0.5 0.2 0.4 0.2 1.1 0.4 1.9 0.9 1.3 0 2.7 0.2 4.2 0.8 1.6 0.6 6.2 3.1 6.4 9.7 4.7-2.7 8.8-1 10.1-0.2 1.5 0.8 2.7 1.8 3.5 2.9 2.2 0.1 3.9 0.9 4.9 1.6 2.8 1.7 4.1 4 4.6 6.3 4.2-1.5 7.4 0.1 9.3 1.5 2.2 1.7 3.2 3.7 3.8 5.6 2 0.1 4 0.8 6 2.6 1.4 1.2 3.1 3.3 3.3 6.3 1 0.6 1.7 1.2 2.2 1.7 1 1 3.7 4.3 2.8 9.1 2.6-0.4 7.7-0.8 11.3 3.7 1.1 1.3 2.2 3.4 2.2 6.1 0.8 0.6 1.6 1.4 2.3 2.4 2.1 3 2.1 6.1 1.9 8.1 2.6 0.4 5.2 1.7 7 5 1.6 2.8 1.6 5.4 1 7.6 4.2 0.6 6.3 3.3 7.3 5.1 0.5 0.7 1.4 1.8 2.1 3.4 2.8 6.7-1.8 11.3-4.8 13.7 0.2 1.2 0.2 2.4 0.1 3.4 0.8 0.5 1.7 1.2 2.4 2.1 0.1 0 0.1 0.1 0.2 0.1 2.9 0.5 8.6 2.1 10 8.3 0.4 1.6 0.6 3.9-0.5 6.2 0 0.1 0.1 0.2 0.1 0.3 0.2 1.3 0.3 2.4 0.3 3.1v0.3c0.1 0.8 0.2 1.9 0 3.1 1.3 1.4 2.4 3.3 2.7 5.8l0.1 0.9c0.1 0.7 0.2 1.5 0.2 2.2 0.1 1.6 0 2.9-0.4 4.1 0.2 0.7 0.3 1.4 0.3 2.2 0.1 2.2-0.4 4-1.2 5.5v0.8c0.1 3.4-1.4 5.8-2.7 7.4 3.2 2.9 3.4 6.4 3.4 8 1.2 1.7 2 4 1.7 6.9-0.2 2.2-1.1 3.9-1.9 5.1 0.3 1.3 0.4 2.7 0.1 4.3-0.2 1.3-0.9 3.6-2.8 5.5 0.7 1.7 1.4 4.2 0.6 7.1-0.2 0.6-0.5 1.8-1.3 3 0 1.4-0.2 2.5-0.4 3.1-0.5 1.7-2.8 7.5-11 7.5h-0.5c-1 1-2.1 1.7-3.3 2.2 0.9 2.2 1.3 5-0.1 8.1-0.2 0.5-0.5 0.9-0.7 1.3 1.5 3.8 0.2 7.1-0.5 8.3-0.4 0.7-1.1 2-2.5 3.1-0.2 0.7-0.5 1.4-0.9 2.1-0.3 0.5-0.6 1-1 1.4-0.2 1.4-0.6 2.8-1.5 4.3-2.2 3.5-5.1 4.6-8 4.8-0.3 1.2-0.8 2.3-1.7 3.5-0.4 0.6-0.8 1-1.2 1.4 0.2 1.5 0.1 3.1-0.6 4.7 2.6 5.6-0.1 9.6-1.5 11.2-3.3 3.7-7.5 3.7-10.3 3.3-0.3 1.7-1 3.4-2.4 5-0.1 1.4-0.4 2.8-1.1 4.1 1.4 0.5 2.9 1.4 4.2 2.9 1.5 1.7 3.3 4.7 2.3 8.8 0.5 0.9 0.9 1.8 1.1 2.7 1.6 0.8 2.7 2 3.2 2.6 0.2 0.2 0.4 0.5 0.6 0.7 2.7 0 5.6 0.9 8 3.9 1 1.3 2.6 3.9 2.1 7.5 4.1 0.2 6.5 2.7 7.5 4.2l0.6 0.8c0.4 0.6 0.8 1.1 1.2 1.7 2.5 3.5 2.2 6.9 1.1 9.7 1.8 0.7 3.8 1.9 5.2 4.2 1.1 1.6 1.5 3.2 1.8 4.2 0.5 1 0.8 1.9 0.9 2.5 1.6 3.2 1.1 6.2 0.3 8.4 3 1.2 4.5 3.4 5.1 4.4 0.2 0.4 0.5 1 0.8 1.8 3.4 1.1 5.1 3.7 5.7 4.8 0.4 0.8 1 2.2 1.2 3.9 2.6 0.6 5.3 2.1 7 5.5 1.8 3.6 1.2 6.7-0.2 9.2 0.1 0.3 0.1 0.7 0.2 1 1.5 0.9 2.9 2.4 3.8 4.6 1.7 4.1 0.6 7.4-1.1 9.9 0.1 0.6 0.1 1.3 0 2.1 3.6 0.1 8.6 1.3 10.6 7 1.1 3.1 1.7 9-6.8 13.6 0 0.3 0.1 0.5 0.1 0.8 5.2 1 7.1 4.7 7.8 6.6 1.7 1.2 3.3 3 4 5.8 0.9 3.4 0 6.1-1.3 8.2 0.1 0.4 0.3 0.8 0.4 1.3 0.2 0.7 0.2 1.4 0.3 2 2.7 1.9 3.6 4.7 4 6.2 0 0.2 0.1 0.3 0.1 0.5 1.2 1.3 2.1 2.9 2.5 5.2 0.3 1.9 0.1 3.6-0.3 5 1.7 1.4 3.3 3.5 3.7 6.7 0.2 1.8 0 3.3-0.4 4.6l0.3 1.5c0.3 2.8-0.4 5-1.5 6.7 0 0.7 0 1.6-0.2 2.5 0.4 1.1 0.6 2.2 0.7 3 0.1 1.4 0 2.6-0.3 3.7 0.6 0.9 1.1 2 1.4 3.3 0.2 0.4 0.4 0.8 0.6 1.4 1 1.3 2.2 3.5 2.3 6.5 0.1 3.3-1.3 5.8-2.4 7.2-0.5 1.2-1.1 2.2-1.6 2.9 1.3 1.5 3.3 4.1 3.1 8 0 1.5-0.6 5.8-5.1 8.5-0.1 0.2-0.1 0.4-0.2 0.6 1.3 2.3 1.4 4.6 1.3 5.9-0.1 1.4-0.4 2.6-0.9 3.6 0.7 1.5 1.1 3.3 0.8 5.4-0.1 0.5-0.1 0.9-0.2 1.3 1.8 1.9 2.9 4.5 2.4 8.1-0.2 1.4-0.6 2.5-0.8 3.2 0 0.1 0 0.1-0.1 0.2-0.3 1.7-1 3.1-1.8 4.2 0 0.4-0.1 0.8-0.1 1.2-0.3 1.5-1.1 4.3-3.7 6.3 0.1 0.4 0.2 0.8 0.3 1.1 0.7 1.5 1.7 4.3 1 7.6 0 0.2-0.1 0.4-0.2 0.6 0.8 2.3 0.5 4.5 0.2 5.7-1 4.2-3.9 6.2-6.5 7.3-1 1.7-2.7 3.7-5.9 4.7 0.4 1.1 0.7 2.4 0.6 3.7 0.1 0.6 0.2 1.4 0.2 2.3 2.4 2.4 4.9 6.2 3.1 11.3-0.7 2-2.3 4.9-6 6.2 0.1 1.3-0.1 2.8-0.7 4.3-0.3 0.8-0.9 2-1.9 3.1-0.2 1-0.4 1.8-0.7 2.4-1.5 3.7-4.4 5.4-7.1 6.1 2.1 2.7 4 6.6 1.7 11.4-1 2.1-2.4 3.5-3.9 4.4 0.7 3.2-0.4 5.8-0.9 6.8-0.4 0.8-1.2 2-2.4 3-0.3 0.9-0.6 1.6-0.9 2.1-1.5 2.8-3.6 4.2-5.8 4.9-0.1 2.2-0.9 4-1.4 4.9-2.7 4.6-7 5.2-10.4 4.9 1 2.6 1.2 5.8-1.1 9.2-0.3 0.5-0.7 1-1.1 1.4 0.7 3.3-0.6 6-1.7 7.6-1.2 1.8-2.8 2.9-4.3 3.5-0.3 1.1-0.9 2.2-1.7 3.3-3.7 5-9.1 4.4-12.5 3.5-0.2 0.4-0.5 0.9-0.9 1.3-0.8 1-1.6 1.7-2.5 2.3-0.3 1.6-0.9 3.4-2.4 5.1-0.6 0.8-1.3 1.4-1.7 1.8l-0.4 0.4c-1.2 1.4-2.5 2.3-3.8 2.8-0.2 0.3-0.5 0.6-0.7 0.9-0.2 0.3-0.5 0.5-0.8 0.8 0.2 0.3 0.4 0.5 0.5 0.8 5 7.3 1.5 12.3-0.2 14.2-1.6 1.7-3.3 2.6-5.1 3-0.5 0.9-1.1 1.9-2 2.8-1.9 1.9-4 2.8-6 3-0.4 0.7-1 1.4-1.7 2.1-1.4 1.4-2.9 2.1-4.3 2.6-0.2 3.5-2.1 5.8-3.3 6.8-2.5 2.3-5.5 2.8-7.6 2.8-0.2 2.3-1.1 5-3.6 7.2-2.6 2.2-5.3 2.7-7.8 2.4-0.2 3.8-2.5 6.1-3.8 7.2-3.7 2.9-7.5 2.5-10.5 1.3-0.6 1.7-1.7 3.4-3.6 4.8-0.7 0.5-1.5 1-2.2 1.3 0.9 6.1-2.9 9.3-4.3 10.2-2.9 2-5.6 2.2-8 1.6-1.1 0.5-2.1 0.8-3.1 1-0.6 1-1.4 1.9-2.5 2.7-0.7 2-1.9 4-4.4 5.6-2.1 1.3-4 1.7-5.9 1.6-0.9 2.2-2.5 3.7-3.8 4.6l-0.1 0.1c-0.6 0.5-1.5 1.3-2.8 2-1.2 0.7-2.4 1.1-3.6 1.3-0.5 0.5-1.1 0.9-1.8 1.3-3.4 1.9-6.4 1.5-8.9 0.5-0.7 2.1-2.2 4-4.9 5.4-1 0.5-3.5 1.5-6.6 0.9-0.8 1.1-2.2 2.6-4.4 3.7-1.3 0.6-5.2 2.1-9.4-0.3-1 1.7-2.5 3.5-5 4.6-2.5 1.1-4.8 1.2-6.7 0.6-0.9 4.7-4.3 6.6-6.1 7.3-1.1 0.4-3 1-5.2 0.7-1.3 1.2-2.6 1.8-3.3 2.1-0.8 0.3-2.1 0.7-3.6 0.7-0.8 0.5-1.6 0.9-2.1 1.1-0.9 0.3-2.7 0.8-5 0.5-0.4 0.2-0.7 0.3-1 0.4-1 0.3-3.2 0.9-5.8 0.3-1.1 1.6-2.8 3.1-5.3 3.9-1.4 0.5-2.7 0.6-3.9 0.5-1.1 1.1-2.5 2.1-4.4 2.7-1.4 0.4-2.7 0.6-3.9 0.5-0.8 0.8-1.8 1.5-3 2.1-1.1 1.8-3.1 4.1-6.5 5-1.3 0.4-2.6 0.5-3.7 0.4-0.7 0.3-1.4 0.6-2.2 0.8-4.1 1.1-7.1-0.3-9.3-2.3-0.3 0.2-0.5 0.3-0.8 0.5-1 0.8-2.7 2-5 2.5-1.5 0.3-2.8 0.3-4 0.1-1.1 2.1-3 4.1-6.3 5-0.8 0.3-2 0.9-3.6 1.2-0.9 0.2-2.2 0.3-3.7 0.1-0.9 0.4-1.7 0.6-2.3 0.7-1.1 0.2-2.6 0.3-4.2-0.1-0.7 0.2-1.3 0.4-1.8 0.5-6 1-9.4-2.8-11.3-5.8-0.5 0.1-1 0.3-1.6 0.4h-0.1c-0.4 1-1 1.8-1.6 2.5-1 2.2-3.4 6.7-9 7.4-1.2 0.2-2.3 0.1-3 0.1h-0.3c-2.1 0.2-6-0.1-9-4.1-1.2-0.2-2.2-0.6-3.1-1.1-2.4 5-6.9 5.8-8.5 5.9-1 0.1-3.5 0.1-6-1.4-0.9 0.3-1.9 0.5-3 0.6-2.5 0.1-4.5-0.6-6.1-1.5-1.5 2.7-4.1 5.2-8.7 5.3-0.6-0.4-0.7-0.4-0.9-0.4z m-2.5-0.2z m47.7-3.6c-0.1 0-0.1 0 0 0-0.1 0-0.1 0 0 0z m-34.5-2.8c0.4 0 0.8 0.1 1.3 0h-1.3z m1.3 0z m-8.7-0.7z m47.4-0.4z m1.4-0.3c-0.6 0.2-1.1 0.2-1.4 0.3 0.5-0.1 1-0.2 1.4-0.3z m-113.2-1.6c0.7 0.3 1.6 0.5 2.4 0.5-0.5-0.1-1.4-0.2-2.4-0.5z m149.4-6.9z m1.8-0.5c-0.7 0.3-1.3 0.5-1.8 0.6l1.8-0.6z m10.1-0.5z m0 0z m23.3-4.6z m-161.9-9.3c1.5 0.8 2.6 1.8 3.4 3 1.6-2.7 4.4-5.5 9.3-5.4 1.6 0 2.9 0.4 4.1 0.9 1.2-0.5 2.6-0.8 4.3-0.8 0.5 0 1.3 0 2.2 0.3 2.4-1.9 5.1-2.2 6.2-2.2 2.1 0 5.2 0.5 7.6 3.3l1.5-1.2c1.4-1.4 3.9-3.3 7.6-3.5 2.1-0.1 6.6 0.3 9.4 5.3 0.6-0.2 1.3-0.3 2.1-0.3h1.7c1.6-0.8 3.1-1.1 3.9-1.1 1.7-0.1 3.2 0.1 4.5 0.6 1.1-0.6 2.4-1 3.9-1.1h0.6c1.2-0.9 2.8-1.5 4.8-1.8 1.2-0.1 3.1-0.1 5.1 0.7 1.1-1.9 3.5-5.3 8.3-6 3.2-0.4 5.6 0.4 7.5 1.9 1.2 0 2.3 0.1 3 0.3h1.1c1.8-1.8 4-2.5 5.3-2.7 1.4-0.2 3.3-0.3 5.3 0.4 0.2 0 0.3-0.1 0.4-0.1 0.9-0.2 2.2-0.3 3.8 0 1.2-2.2 3.2-4 6.6-4.8 5.4-1.2 8.8 1.7 10.9 4.6 0.8-0.5 2.2-1.3 4-1.8 2.3-0.6 4.3-0.3 5.5 0h0.8c0.7-0.3 1.4-0.6 2.2-0.8 1.2-0.3 2.3-0.4 3.3-0.4 0.8-2.2 2.3-4.2 4.9-5.4 0.8-0.6 2.2-1.6 4.1-2.1 3.3-1 6-0.4 8.1 1l0.9-0.3c0.8-0.2 1.5-0.4 2.2-0.5 0.7-2.6 2.4-6.2 6.9-7.7 0.4-0.1 1.1-0.3 1.9-0.5 1.2-1.1 2.5-1.6 3.2-1.8 0.7-0.2 1.6-0.5 2.7-0.6 0.9-0.7 1.8-1.1 2.5-1.3 0.6-0.2 1.5-0.5 2.6-0.6 1-1.4 2.5-2.8 4.7-3.7 1-0.4 2.6-0.8 4.4-0.7 0.4-0.2 0.7-0.4 1-0.5 1.7-0.7 3.2-0.9 4.2-0.9 1.1-0.3 2.1-0.4 2.9-0.5l1.2-0.5c3-1.3 5.5-1.1 7.7-0.2 0.8-2 2.4-4 5.1-5.3 0.2-0.1 0.5-0.2 0.9-0.4 1-3.6 3.7-5.4 5.2-6.2 3.3-1.7 6.3-1.2 8.7-0.2 0.7-0.7 1.6-1.4 2.7-2 4.5-2.4 8.4-1 11.2 1-2.7-8.2 1.3-12.1 4-13.7 2.1-1.2 7.5-3.4 13.4 2.4h0.9c0.2-2.7 1.1-6.1 4.7-8.5 2.9-1.9 5.7-2.1 8.1-1.4 0.1-0.1 0.3-0.1 0.4-0.2 0.1-0.1 0.2-0.3 0.3-0.4-0.1-2.9 0.8-6.1 4.2-8.6 0.8-0.6 1.6-1 2.3-1.3 0.1-0.1 0.2-0.3 0.4-0.4 0.6-1.1 1.6-2.7 3.4-4 1.5-1.1 3.1-1.7 4.5-2 0.6-2.9 2.4-4.7 3.5-5.6 3.1-2.5 6.2-2.6 8.9-1.9l1.5-0.6c0.1-2.3 1.1-4.7 3.4-6.8 1.9-1.7 3.9-2.3 5.7-2.6 0.7-2.2 2-3.7 2.8-4.5 2.8-2.6 6-2.9 8-2.9 0.9-0.2 1.9-0.3 2.8-0.3 0.5-0.9 1.2-2.1 2.3-3.2 1.1-1.1 2.3-1.9 3.4-2.3 0.3-0.8 0.6-1.5 1.1-2.3-0.1-0.6-0.1-1.2 0-1.8-0.4-2.2-0.7-6.4 2.5-9.9 0.1-0.2 0.3-0.3 0.4-0.5 0.3-0.5 0.8-1 1.3-1.7 1.5-1.6 3.1-2.6 4.7-3 0 0 0-0.1 0.1-0.1 0.9-1.1 1.9-1.8 3-2.4-0.2-2.3 0.2-5 2.3-7.6 1.9-2.4 4.2-3.4 6.4-3.7 2.3-2.3 5-2.9 7.1-3.1 0.2-0.6 0.5-1.1 0.8-1.7-3.5-5.2-1.7-9.5-0.2-11.7 1.9-2.8 4.4-3.9 6.7-4.3-0.2-2 0.1-4.3 1.5-6.6 1.6-2.6 3.8-3.9 6-4.5 0.2-1.7 0.8-3.1 1.3-3.9 1-1.8 2.4-3 3.8-3.8-0.4-2.7 0.5-4.8 1.1-6 1.1-2.1 3.4-4.9 8-5.3 1-1.1 2.2-1.9 3.3-2.4-2.5-2.5-5.8-6.9-3.2-12.7 0.9-2 2.1-3.3 3.4-4.3-0.6-2.5 0-4.7 0.5-5.9 0.5-1.3 1.8-3.6 4.3-5-0.2-1.4-0.1-3 0.6-4.8 0.7-2 2.3-4.7 5.8-6-0.5-1.4-0.8-2.9-0.6-4.7-1.2-2.1-1.9-4.7-1-7.9 0.9-3.4 3.2-5.3 4.6-6.3 0.7-0.7 1.5-1.4 2.5-2-0.2-1.6-0.1-3 0.2-3.9 0.1-0.5 0.4-1.4 0.9-2.5-1.5-1.9-3.2-4.9-2.4-9 0.9-4.6 4.1-6.8 6.1-7.9 0.9-0.8 2.1-1.6 3.6-2.1-0.5-1.1-0.7-2.4-0.7-3.9-0.2-0.9-0.4-2.4-0.2-4.2 0.1-0.9 0.3-1.8 0.6-2.5-0.4-0.7-0.7-1.5-0.9-2.4-4.5-2.9-4.8-7.2-4.7-9.2 0.2-3.5 2.1-5.9 3.4-7.2 0.5-0.8 1.1-1.5 1.7-2.1-2.3-2.6-2.6-5.6-2.6-6.8 0.1-6.4 4.7-9 8.7-10.2-3.2-1.4-6.2-3.9-6.5-8.9v-0.1c-3.7-2.3-4.5-5.9-4.7-7.7-0.2-2.2 0.1-7.1 5.9-10.1-6.7-1.4-8.2-6.3-8.6-8.5-0.2-1.2-0.4-4.2 1.5-7.1-2.7-1.9-3.7-4.6-4-6.2-1-4.8 1.3-8.1 3.8-10.2-0.2-1.2-0.1-2.3 0.1-3.3-6.6-0.8-8.6-5.7-9-7.3-0.7-2.4-0.5-4.5 0.1-6.2-0.1-0.5-0.2-0.9-0.3-1.4-1.5-1.1-3.1-2.7-4-5.3-0.6-1.8-1.1-4.6 0.3-7.4-1.9-1-3.7-2.6-4.7-5.3-0.5-1.2-1.5-4.7 0.4-8.4-1.6-0.9-3.2-2.4-4.2-4.7-0.7-1.6-1.8-5.1 0.2-8.8-4.9-0.4-7.3-3.7-8.2-5.4-0.5-1-1.1-2.6-1.2-4.5-0.8-0.7-1.6-1.7-2.3-2.9-0.2-0.3-0.3-0.6-0.4-0.9-1.7-1.2-2.7-2.6-3.1-3.4-2.6-4.6-1-8.8 0.2-11.1 0.1-0.8 0.3-1.5 0.4-2 0-0.5 0-1 0.1-1.4-7.2 2.1-10.9-2-12.2-3.9-2.3-3.4-1.9-7-1.5-9 0-0.4 0-0.8 0.1-1.2-1.1-0.6-2-1.3-2.7-2-3.4-0.6-5.5-2.9-6.2-3.8-2.9-3.8-2.3-7.8-1.7-10-4.2-0.1-6.7-2.6-7.6-3.6-0.5-0.7-1-1.3-1.3-2-2.6-0.6-4.4-2.2-5.3-3.2-0.9-1-1.9-2.5-2.3-4.3-1.9-0.3-3.9-1.2-5.7-3.1-1.3-1.4-3.8-4.8-2.3-9.8-0.7-1.3-1-2.6-1-3.9-1-0.5-2-1.1-2.9-2.1l-8.6-8.4 6.4-4.5c0.3-2.6 1.1-5.9 4.1-8.2 0.6-1.6 1.6-3.3 3.4-4.7 1.6-1.3 3.2-1.9 4.3-2.2 1.8-1 4.2-1.6 7.2-0.8 0.4-0.6 0.9-1.2 1.4-1.7l0.3-0.3c0.4-0.4 0.9-1.1 1.5-1.7 1.2-1.2 2.5-2 3.8-2.4 0.1-2.9 1.5-4.9 2.4-6 0.2-0.3 0.5-0.5 0.7-0.8 0.3-1.2 0.9-2.5 1.9-3.7 0.5-0.7 1.1-1.2 1.7-1.7 0.1-1.7 0.6-3.4 1.9-5.2 1.2-1.7 2.6-2.7 4-3.4v-0.1c0.6-0.9 1.2-1.6 1.9-2.2 0.2-0.6 0.5-1.3 0.9-1.9-0.1-1.6 0.3-3.4 1.3-5.3 0.1-0.2 0.3-0.5 0.5-0.8 0.1-1.9 0.7-3.4 1-4.2 0.7-1.5 1.7-2.6 2.7-3.4-0.4-1.7-0.4-3.9 0.5-6.2 0.7-1.8 1.8-3.1 2.9-4.1 0-0.1 0-0.1 0.1-0.2 1.3-3.5 3.7-5.3 6.2-6.2 0-1 0.2-1.9 0.4-2.6 0.3-1 0.8-2.4 2-3.9-0.9-1.7-1.3-3.9-0.8-6.5 0.4-1.9 1.7-5.8 6.4-7.6 0.3-0.6 0.7-1.2 1.1-1.7v-0.2c-1.7-1.3-3-3.1-3.5-5.6-0.5-1.2-1.2-3.1-1.1-5.5 0.1-2.3 0.9-4.1 1.4-5.2 0.6-2 1.7-3.6 3-4.7-1.2-1.4-2.1-3.3-2.3-5.8v-1.5c-3.2-1.1-6.2-3.3-6.9-8.1-0.1-0.7-0.2-1.8 0-3-1.3-1.6-1.8-3.2-2-4.3-0.4-2.1-0.5-5.4 2-8.3l-0.4-0.4c-1.6-1-3.8-2.8-4.9-6-1.1-3.3-0.5-6 0.7-8.1-0.1-0.9-0.1-1.7-0.1-2.5-2.3-1.3-3.5-3.3-4.1-4.5v-0.1c-2-1.3-3.1-3-3.6-3.9-1.6-3.2-1.4-6-0.4-8.4-1.6-0.7-3.1-1.9-4.3-3.7-0.5-0.7-0.8-1.4-1.1-2.1-4.6 0-7.2-2.9-8-4-1.5-1.9-3.2-5.5-1.2-10.1-2.1-0.2-4.6-1-6.7-3.2l-0.2-0.2-0.9-0.3c-1.6-0.2-4-0.9-6.2-2.9-1.6-1.5-3.5-4.1-3.2-8l-0.1-0.1c-3.6 0.9-6.5-0.5-8.2-1.7-0.9-0.7-1.7-1.4-2.3-2.2-0.6-0.3-1.1-0.6-1.7-1-2.1-1.4-3.3-3.1-3.9-4.9-0.6-0.2-1.1-0.5-1.5-0.8-2-1.2-3.2-2.8-4-4.3-1.7 0.6-3.9 0.8-6.2 0.1-1-0.1-2.5-0.3-4.2-1.1-4.5-2-5.8-5.9-6.1-9.1-0.4-0.2-0.7-0.4-1-0.6-0.8-0.1-1.7-0.3-2.7-0.6-0.4-0.1-1.1-0.4-1.8-0.8-1.6 0.6-3.6 0.8-5.9 0.2-1.6 0.6-3.5 0.8-5.7 0.2-1.3-0.3-2.4-0.8-3-1-4.8-1.3-6.7-5.1-7.5-8-0.4-0.3-0.7-0.5-1-0.8-0.7 0.3-1.4 0.6-2.2 0.8-1.8 2.5-4.6 4.7-9 4.4-2.1-0.1-3.8-0.8-5.2-1.7-2.1 1.4-4.3 1.6-5.2 1.6-1.3 0-2.6-0.2-3.6-0.6-1.1 0.6-2.5 1-4.1 1.2h-0.2c-1.4 1.9-3.6 3.8-7.1 4.3-0.6 0.1-1.5 0.1-2.4 0-1 0.4-1.9 0.7-2.5 0.8-4.5 0.8-7.7-1.3-9.7-3.5-1 0.8-2.3 1.5-3.8 1.9-0.9 0.3-2.4 0.5-4.1 0.3-0.4 0.2-0.8 0.3-1.1 0.4-0.4 0.1-0.7 0.2-1 0.3-1 1.9-2.7 3.7-5.4 4.8-2.5 0.9-4.6 0.9-6.5 0.3-0.8 2-2.3 4-5 5.4-0.3 0.2-0.7 0.3-1 0.5-1 3-3.2 4.6-4.5 5.3-1.1 0.6-3.2 1.5-5.7 1.3-0.6 0.6-1.2 1.1-1.6 1.3-0.3 0.2-0.6 0.4-1 0.6-0.4 0.2-0.8 0.5-1.2 0.8-0.9 0.6-2.5 1.5-4.6 1.7-0.7 2.2-2.2 3.7-3.3 4.6-3.2 2.5-6.5 2.5-9 2-0.4 0.6-0.9 1.1-1.5 1.6-0.5 0.5-1.2 1-2.1 1.5-0.5 0.9-1.1 1.6-1.6 2.1-0.7 0.7-1.4 1.2-2.1 1.6-0.4 0.7-0.9 1.4-1.6 2.1l-0.2 0.2c0.4 2.5 0 5.3-2.2 8-0.9 1.1-2.3 2.4-4.3 3.1-1 1.3-2.1 2.2-2.8 2.7-0.7 0.7-1.3 1.3-1.7 1.6-1.6 1.9-3.6 2.9-5.3 3.3-0.2 1.2-0.6 2.4-1.4 3.6-1.2 2-2.7 3.2-4.3 4-0.1 0.5-0.3 1-0.5 1.5 3.1 4.4 1.6 8.7 1 10.1-0.5 1-1.4 2.6-3.1 3.9 0.6 2.6 0 4.7-0.3 5.7-0.3 0.7-0.7 1.8-1.6 2.8 0.2 1.4 0.2 2.9-0.3 4.5 0 0.1 0 0.2-0.1 0.2 0.5 1.9 0.3 3.6-0.1 5-1 3.9-3.4 5.9-6 6.9v0.3c2.1 2.8 2.1 5.8 1.9 7.4-0.1 1-0.5 2.5-1.4 4 1.7 2.5 1.8 5.1 1.7 6.2-0.1 1.3-0.6 4.6-3.5 7.1 0.4 1 0.6 2.1 0.6 3.4 0.1 4.8-2.6 7.6-5.3 9.3l0.3 6.1-8-1.3c-0.1 0.1-0.2 0.1-0.3 0.2-1.7 1.9-5 4.8-10.1 4.1-2.4-0.4-4.2-1.3-5.5-2.6-1.9 2.1-4.7 3.6-8.6 3.2-4.6-0.6-7-3.6-8.2-5.7-0.3-0.3-0.6-0.6-0.9-0.8-0.5-0.3-1-0.7-1.5-1.1-0.8 0.1-1.7 0.1-2.6 0-1.1-0.1-3.7-0.6-5.9-2.6-1.8 1.9-4.4 3.5-8.2 3.3-1.1-0.1-3.5-0.4-5.7-2.2-0.8 0.2-1.7 0.2-2.6 0.2-1.4-0.1-4-0.5-6.3-2.5-1.2 0.6-2.5 1-4.1 1.1-1.5 3.3-4.2 6.2-9.3 6.2h-0.1c-2.6 0-6.8-0.9-9.1-6-3.2-1.1-5.1-3.8-6.2-6.1-0.7 0.4-1.6 0.7-2.5 0.9-1.1 4.1-3.4 9-9.9 9.3-2.4 0.1-4.3-0.4-5.8-1.4-1.5 2.4-3.9 4.4-7.8 4.8-2.6 0.2-4.6-0.4-6.2-1.5-1.3 0.8-2.9 1.5-4.8 1.7-1.1 0.1-2.9 0.1-4.8-0.7-0.3 0.1-0.5 0.1-0.8 0.1-1.4 0.2-2.6 0.1-3.3 0h-1.5c-2 2.2-4.5 2.8-6 3-2.4 0.3-4.4-0.1-6-1-1.2 1-2.9 1.9-4.9 2.2-3.2 0.5-5.7-0.5-7.4-1.5-1.6 0-4-0.3-6.2-2-0.9 0.5-2 1-3.3 1.2l-12.6 2.4 0.5-8.7c-2.2-2.2-4.6-5-4.4-9.4 0.1-2.3 0.9-4.2 1.6-5.4 0-0.9 0.1-1.7 0.2-2.2-0.1-0.7-0.3-1.6-0.4-2.8-0.2-4 1.6-6.6 3.9-8.3-0.7-0.9-1.3-2.1-1.6-3.4-1.7-1.3-3.1-3.3-3.6-6.2-0.5-3 0.2-5.4 1.5-7.3-0.1-1.7 0.2-3.1 0.7-4.4-1-1-1.9-2.4-2.5-4.2 0-0.1-0.1-0.2-0.1-0.3-0.2-0.6-0.6-1.3-0.9-2.3-0.5-1.6-0.6-3.1-0.4-4.5-0.6-0.4-1.1-0.7-1.6-1.2-1.5-0.8-3.9-2.5-5.2-5.6-0.5-1.1-1-2.9-0.8-5.1-0.1-0.2-0.3-0.3-0.4-0.5-3.4-0.8-5.3-3.2-6.3-5-0.5-0.9-0.8-1.7-1-2.3 0-0.1-0.1-0.2-0.1-0.2-1.6-3-1.5-5.7-0.7-8-4.6-0.1-7.3-3-8.1-4.1-1.1-1.5-1.7-3.1-2-4.1-1.2-2.2-1.3-4.4-0.9-6.4-4.5 0.7-7.4-1.7-8.7-3-1.4-1.4-3.8-4.8-2.4-9.8-0.7-0.7-1.2-1.4-1.6-2.1-0.5-0.3-1-0.7-1.5-1.1-2.5-2.2-3.4-4.8-3.7-6.7-1-0.3-2.1-0.8-3.2-1.7-1.7-1.2-2.7-2.7-3.4-4.1-2.6 1.2-5 1.1-6.8 0.6-2.5 1.1-5.6 1.5-9.1-0.4-1.3-0.7-2.3-1.5-3-2.4-2.7 0.8-5.1 0.1-6.7-0.6-4.6-2-5.8-6-6.2-9-2.3 2.3-5.7 4.2-10.3 2.8-1.2-0.3-4.1-1.5-5.9-4.6-1.8-0.8-3.9-2.3-5.1-5.3-0.5-0.3-1-0.6-1.4-0.9-1.7 1-3.9 1.6-6.5 1.3-1.2-0.2-2.3-0.5-3.2-1-0.6 0-1.3 0.1-1.9 0-1.1-0.1-3.7-0.6-5.9-2.7-0.6 0.3-1.2 0.5-1.8 0.7-1.2 1.7-2.9 3.1-5.3 3.7-1.1 0.6-2.9 1.3-5.2 1.4-0.8 0-1.6 0-2.3-0.1-1.8 1.4-3.7 1.9-5.2 2-1.2 0.1-2.4 0-3.4-0.2-0.5 0.2-1.1 0.3-1.7 0.4-1.4 0.2-3.9 0.2-6.4-1.2-1 0.7-2.3 1.3-3.9 1.7-1.1 0.2-2.1 0.3-3 0.2-1.5 1.4-3.2 2.1-4.3 2.4-1.5 0.4-4.3 0.8-7.2-0.7-1 1.7-2.6 3.2-5.1 4.2-1.9 0.7-3.7 0.8-5.3 0.6-1.4 2.1-3.2 3.1-4.1 3.5-0.8 0.4-2.1 0.9-3.7 1-0.7 0.8-1.8 1.7-3.2 2.5-3.5 1.9-6.5 1.5-9.1 0.3-0.5 0.6-1.2 1.1-1.9 1.6-2 1.3-4 1.8-5.8 1.7-0.6 1.3-1.6 2.7-3.2 3.9-1.1 0.9-2.3 1.4-3.5 1.8 0.8 3.1 1 7.4-2.8 10.9-0.6 0.5-1.4 1.1-2.3 1.6-0.5 0.7-1 1.3-1.5 1.8-2.5 2.5-5.4 3.1-7.9 3 0.5 2.6 0.4 5.6-2 8.6-1.6 2-3.4 3-5.2 3.5 0.4 2.2 0.1 4.7-1.5 7.2-0.8 1.2-1.5 2-2 2.5-1.2 1.7-3.8 4.2-8.2 4.2 0.7 2 0.9 4.3-0.1 6.9-0.1 0.7-0.4 1.9-1 3.3-0.4 0.8-0.7 1.5-1 1.9-0.1 0.1-0.2 0.3-0.2 0.4-0.4 0.9-1.1 2.2-2.4 3.4 1 2.9 0.3 5.5 0 6.5-0.4 1.3-1.9 4.7-6 6.2 1.5 2 2.6 4.8 1.9 8.4-1 4.5-3.9 6.6-6.9 7.6 1.3 1.7 2.3 3.9 2.1 6.9v0.2c0 0.6 0.1 1.6 0 2.8-0.1 1.5-0.5 2.9-1.1 4 0.6 1.6 0.7 3 0.7 3.8 0 2.1-0.6 3.8-1.4 5.1 3.7 2.5 4.3 6.3 4.4 7.6 0.3 4.4-1.8 7.3-4.2 9.1 0.1 1.8-0.2 3.3-0.5 4.4v0.4c2.3 1.2 4.5 3.2 5.4 6.8 0.2 0.8 0.3 1.6 0.3 2.4 0.4 0.7 0.7 1.4 0.9 2.2 1.8 1.5 2.7 3.4 3.2 4.8 0.8 2.5 1.2 6.8-3 10.6 2.9 0.2 7 1.3 9.3 5.7 1.5 0.9 2.8 2.2 3.9 4.1 0.9 1.7 1.2 3.2 1.3 4.2 0.8 2.2 1.1 5.7-1.6 9.5 2 0.5 4.2 1.7 5.8 4 0.4 0.5 0.9 1.3 1.2 2.3 4.4 0 7.1 2.6 7.9 3.7 2 2.4 4.5 7.3-0.6 14 1.2 1.9 1.5 3.9 1.5 5.6 0.9 0.4 1.9 0.9 2.8 1.6 0.6-0.2 1.1-0.4 1.8-0.5 2.3-1.4 8.3-4.8 13.9-0.4 1.2 0.9 2 1.9 2.5 2.5 1.1 1 1.9 2.1 2.4 3.2 0.1 0.1 0.2 0.2 0.3 0.2 3.4 2.4 4.3 5.9 4.6 8.1 0.1 0.3 0.2 0.5 0.3 0.7 1.3 1.8 2 4.1 1.9 6.4 0.2 0.4 0.3 0.7 0.4 1.1 1.2 3.6 0.3 7.5-2.3 10.2-1.8 1.8-3.7 2.7-5.6 3 0.9 4.3-1.2 7.3-2.4 8.6-1.5 1.7-3.3 2.6-4.9 3.1-0.1 1.1-0.5 2.3-1.1 3.4 0.9 3.8-0.7 6.7-2 8.4-0.6 0.8-1.3 1.4-1.9 1.9-0.2 1.6-0.8 3.6-2.2 5.4-1.3 1.7-3.8 4-7.9 3.9 0 2.7-1.1 4.8-1.9 5.9-0.5 0.7-1.2 1.5-2.3 2.3-0.3 0.8-0.7 1.5-1.1 2-1.3 2-3 3.1-4 3.7-1.2 1.1-2.9 2.1-5.2 2.4-0.3 1.6-0.9 2.8-1.3 3.4-0.2 0.4-0.5 0.7-0.7 1-0.1 0.6-0.2 1.1-0.3 1.6 1.1 2.5 1.6 5.8-0.4 9.3-0.8 1.3-1.7 2.4-2.6 3.1-0.2 0.6-0.4 1-0.6 1.3-0.6 1.1-1.8 2.8-3.9 4-0.2 0.9-0.5 1.8-1 2.7-1.4 2.8-3.6 4.3-5.7 5-0.1 1.1-0.4 2.5-1.1 4-0.3 0.6-0.6 1.1-0.9 1.6v0.3c0.2 1.1 0.3 2.6-0.1 4.4 1.7 3.1 1.3 6.1 0.3 8.4-1.2 2.9-4.4 7.4-12.9 6l-0.9 1.2c1.3 2.1 2.1 4.8 1.1 8.1 2.8 3.1 2.9 6.4 2.6 8.4 0 0.7 0 1.8-0.3 3.1 0 0.9-0.1 2.2-0.5 3.8-0.4 1.3-1.6 4.6-5.4 6.4 0.1 1 0 2.2-0.3 3.4-0.7 2.8-2.2 4.7-3.9 5.9 0.1 0.3 0.1 0.7 0.2 1 0.5 1.4 1.2 3.7 0.7 6.4-0.4 2-1.2 3.5-2.2 4.7 0.8 1.7 1.3 3.7 1 6.2-0.1 0.3-0.1 0.8-0.3 1.2 0.5 1.7 0.5 3.3 0.4 4.3-0.1 0.8-0.4 2.4-1.4 4 0 0.4 0 0.9-0.1 1.3-0.1 1-0.4 2.6-1.4 4.2 2.1 2.7 2.1 5.7 2 6.8-0.1 2-0.8 4.8-3.4 6.9 2.1 2.6 2.3 5.4 2.3 6.6 0 2-0.5 3.7-1.3 5 1.1 1.5 1.9 3.4 1.9 5.9 0 1.2-0.2 4.3-2.5 6.9 0.1 0.5 0.1 1 0.2 1.4 0 0.9 0 1.7-0.2 2.5 1.7 2 2.1 4.3 2.2 5.6 0.2 2.4-0.4 4.3-1.1 5.7 1.5 1.9 1.9 3.9 2.1 5.1 0.2 1.8 0.1 4.5-1.7 7 0 2.4-0.7 4.3-1.3 5.5 0 0.1-0.1 0.3-0.1 0.4 0.1 0.4 0.2 0.9 0.3 1.3 0.2 1.1 0.4 4.1-1.4 7 7.7 0.3 10 5 10.6 8 0.9 4-0.6 7.1-2.1 9.1 1.8 1.6 2.6 3.6 2.9 4.8 0.2 0.7 0.5 1.9 0.3 3.5 2.3 1 4.4 2.8 5.5 6.1 0.9 2.9 0.5 5.4 0 6.9 0 0.7-0.2 1.3-0.3 2 1.9 1.5 2.9 3.3 3.3 4.5 0.6 1.5 1.3 4.5-0.3 7.7 0.2 0.3 0.3 0.7 0.5 1 0.9 2.2 0.9 4.2 0.6 6 0.6 0.4 1.1 0.8 1.5 1.2 1.3 0.8 3.2 2.3 4.4 5 0.3 0.5 0.5 1.3 0.7 2.2 1.6 0.9 3.2 2.3 4.3 4.5 0.1 0.1 0.1 0.3 0.2 0.4 0.6 0.4 1.2 0.9 1.8 1.5 1.1 0.8 2.7 2.1 3.9 4.3 0.6 1.1 1 2.2 1.2 2.8v0.1c0.5 1.1 1.2 3.1 1 5.5 0.8 0.5 1.6 1.1 2.4 1.9 1 0.7 2.4 1.9 3.6 3.8 0.5 0.9 1.6 3 1.4 5.7 0.5 0.5 1 1.2 1.6 2.1 1.4 2.3 1.8 4.5 1.8 6.1 1.4 0.7 2.7 1.7 3.8 3.4 0.2 0.3 0.5 0.8 0.8 1.4 3 0.6 4.8 2.4 5.9 3.9 3.9 5.4 1 10.9-0.3 13.2v0.1c0.3 0.7 0.6 1.2 0.8 1.7 0.3 0.4 0.5 0.9 0.7 1.3 4.9-0.7 7.9 2 9.2 3.5 0.5 0.6 1.2 1.6 1.7 2.8 4.2-0.3 6.8 2 8 3.4 2.8 3.1 3 6.3 2.3 9.2 1.1 2 1.2 4.1 1.1 5.8 2.6-0.8 5.4-0.9 8.1 0.7 1.3 0.4 3.2 1.2 4.9 2.8 1 1 2.6 2.9 3 5.8 2.5-0.3 5.3 0.2 8 2.6 2.8 2.5 3.5 5.5 3.4 8.2 0.9 0.4 1.8 0.9 2.7 1.7 0.9 0.8 1.5 1.5 2 2l0.2 0.2c0.1 0 0.1 0.1 0.2 0.1 4.1-0.9 7.1 0.9 8.5 2 2.9 2.3 3.8 5.2 3.8 7.8 1 0.3 1.9 0.9 2.9 1.6 2.1 1.6 3.2 3.5 3.7 5.4 0.5 0.2 1 0.5 1.5 0.8h0.1c0.5 0.3 1.4 0.7 2.3 1.3 1.9 0 4 0.4 6.2 1.9 0.5 0.4 1 0.8 1.4 1.1 2.9-0.4 5.3 0.6 6.8 1.6 0.9 0.6 2.1 1.6 3.1 3.2 1.2 0.2 2.5 0.7 3.8 1.5 1.7 1.1 2.8 2.4 3.5 3.3 0.4 0.3 0.7 0.7 1.1 1.1 1.5 0.1 3.1 0.5 4.8 1.5 0.5 0.3 0.9 0.6 1.3 0.9 1.2 0.2 2.5 0.6 3.8 1.3 2.6 1.5 6.5 5.1 4.4 12.8 1.7-0.5 3.7-0.5 5.8 0.3 2.2-0.6 4.8-0.7 7.6 0.7 3.8 1.9 5.2 5 5.6 7.9 0.3 0.1 0.7 0.2 1.1 0.3 0.1 0 0.2-0.1 0.3-0.1 2-1.5 6.4-4.3 11.7-1.9 1.2 0.5 4.1 2.2 5.4 5.9 1.9-0.5 4.3-0.7 7 0.4 1.3 0.5 3.5 1.7 4.9 4.2 0.7 0.1 1.4 0.3 2.2 0.6 1.3 0.5 2.4 1.2 3.1 1.8 1.2-0.2 2.5-0.1 3.9 0.2 0.9 0.1 2.3 0.2 3.8 0.8 1.2 0.4 3.1 1.3 4.5 3.2 2.2-1.6 5.5-3 9.6-1.6 0.5 0.2 1.4 0.5 2.3 1.1 1.3 0 2.4 0.3 3 0.5 4.3 1.3 6.1 4.4 6.9 7.4 2.2-1.7 5.1-2.8 8.8-1.8 1 0.3 1.7 0.6 2.3 0.8 0.1 0.1 0.3 0.1 0.4 0.2 0.1 0 0.3 0.1 0.5 0.1 2-0.5 3.8-0.3 5.2 0 2.1 0.5 5 1.9 6.6 5.4 0.2 0 0.4 0.1 0.6 0.1 1.6 0.4 2.8 1 3.9 1.8 1.9-1.2 4.4-2 7.5-1.3 1.7 0.3 3 1 4.1 1.8 0.4 0 0.8 0.1 1.2 0.2 1.6 0.3 4.4 1.2 6.3 4.1 1.1-0.2 2.6-0.3 4.3 0 0.5 0.1 0.9 0.2 1.3 0.3 1.3-0.4 2.7-0.5 4.4-0.2 3.7 0.6 5.8 2.5 7.1 4.8 2.7-1.6 5.4-1.5 6.5-1.4 0.9 0.1 1.7 0.3 2.4 0.6 1-0.2 2-0.2 3.2-0.1 1 0.1 1.8 0.3 2.6 0.6 1.9-2.4 4.6-4.3 9-3.9 1.4 0.1 5.4 0.9 7.8 5h0.1c1.5-0.9 3.4-1.4 5.7-1.3 2.8 0.7 5.1 2.2 6.4 3.4z m180.6-0.7z m-184.7-0.4z m47.6-2.5c-0.1 0-0.1 0 0 0-0.1 0-0.1 0 0 0z m44.6-2.7c-0.6 0.1-1.1 0.2-1.6 0.4 0.6-0.3 1.2-0.4 1.6-0.4z m-246.9-0.5c0.5 0.2 1 0.3 1.5 0.5-0.6-0.2-1.1-0.4-1.5-0.5z m294.7-3.4s-0.1 0 0 0c-0.1 0 0 0 0 0z m5.6-1s-0.1 0 0 0c-0.1 0 0 0 0 0z m98-10c0 0.1-0.1 0.1 0 0-0.1 0.1 0 0.1 0 0z m-364.3-3.5z m-68.2-0.4z m55.2-4.5z m-5.8-0.7s0.1 0 0 0c0.1 0 0 0 0 0z m336.8-2.2c0.1 0 0.2-0.1 0.2-0.1s-0.1 0-0.2 0.1z m0.3-0.1z m76.4-1.3zM331 879.1z m377.2-4.1s-0.1 0-0.1 0.1c0 0 0-0.1 0.1-0.1z m11.6-8.2z m40.5-19.5s0 0.1 0 0c0 0.1 0 0 0 0z m39.3-4.4c-0.1 0-0.1 0.1-0.2 0.1 0.1 0 0.2 0 0.2-0.1zM214 840.1c0.3 0.3 0.6 0.5 1 0.7-0.4-0.3-0.7-0.5-1-0.7z m33.9-6.5z m569.8-1.4zM193 818.8c0 0.1 0 0.1 0 0 0 0.1 0 0.1 0 0z m639.2-1.5z m-605.5-1.8z m-44.4-2.8c0.2 0.3 0.5 0.5 0.8 0.7-0.4-0.2-0.6-0.5-0.8-0.7z m36.4-1.7c-0.4-0.5-0.9-1.1-1.4-1.6 0.3 0.3 0.8 0.8 1.4 1.6z m586.4-1.9z m-594-5.4z m602.6-1.9l-0.1 0.1 0.1-0.1z m8.1-3.5c0 0.1 0 0.1 0 0 0 0.1 0 0.1 0 0zM205 794z m625.5-10.6l-0.2 0.2 0.2-0.2z m36.9-10z m-24-4.5c-0.1 0-0.1 0.1 0 0-0.1 0.1-0.1 0 0 0z m-672.3-4.3z m682.9-5.1z m-684.6-3.9z m-0.1-0.1z m717.5-11.7z m-727.3-4.9z m0-0.1z m-9.6-13.5z m0-0.1s0 0.1 0 0c0 0.1 0 0 0 0z m-29.5-10z m787.2-4.1v0z m0 0z m-0.1-3.3c-0.1 0-0.1 0 0 0-0.1 0-0.1 0 0 0zM138 705.7c0.2 0.3 0.3 0.5 0.4 0.7-0.1-0.2-0.3-0.5-0.4-0.7z m-27.4-2.4z m0 0z m23.8-4.8c0.1 0.2 0.2 0.3 0.2 0.4 0-0.2-0.1-0.3-0.2-0.4z m-7.7-28.8z m0 0z m777.1-3.2c0 0.1 0 0.2-0.1 0.2 0.1-0.1 0.1-0.2 0.1-0.2z m-3.5-13.5c-0.1 0.2-0.2 0.4-0.2 0.7 0-0.2 0.1-0.4 0.2-0.7z m34-9.6c0 0.4-0.1 0.7-0.1 0.9 0-0.3 0-0.6 0.1-0.9z m-847.2-5s0 0.1 0 0c0 0.1 0 0 0 0z m819.5-8.4v0.2c-0.1-0.1 0-0.2 0-0.2z m32.9-3.2z m-828.2-4.2z m801.3-5.4z m-830.8-2.5z m30.2-8.8z m0 0z m828-20.1c0.1 0.6 0.1 1.1 0.1 1.4 0-0.4 0-0.9-0.1-1.4z m-0.3-7.6v0z m-18.4-2.6z m20-0.4z m-858.5-2.9v0z m837.6-5.1z m-3.6-27.8z m0 0z m0-0.1zM908 521v0.2c0.1-0.1 0.1-0.2 0-0.2z m19.7-13.3v0.1c0.1 0 0 0 0-0.1z m-802.7-4z m771-10.5v0.1c0.1 0 0.1 0 0-0.1z m22.4-17.1c0 0.1 0.1 0.2 0.1 0.3 0-0.1-0.1-0.2-0.1-0.3z m-3.1-1.8v0z m-26.3-7.6c0.1 0 0.1 0 0 0 0.1 0 0.1 0 0 0z m-752.3-8.4z m738-34.5s0.1 0 0 0c0.1 0 0 0 0 0z m14.4-2s0 0.1 0 0c0 0.1 0 0 0 0z m-728.4-0.7c0 0.1-0.1 0.1 0 0-0.1 0.1 0 0.1 0 0z m729.5-3.4s0 0.1 0 0c0 0.1 0 0 0 0z m-31.5 0s0.1 0 0 0c0.1 0 0 0 0 0z m31.9-7.3z m-4.9-4.2c0 0.1 0.1 0.1 0.1 0.2 0-0.1 0-0.1-0.1-0.2z m0 0z m-37.2-5l0.1 0.1c-0.1 0-0.1 0-0.1-0.1z m31-1.3z m-29.3-37.3z m-688.5-3.1s0.1 0 0 0c0.1 0 0 0 0 0z m6.3-2.7c0.1 0 0.1 0 0 0 0.1 0 0.1 0 0 0z m-15.1-1.8z m40.5-3.9z m0 0z m-43.2-2.5z m0 0z m691.2-18.3c-0.1 0-0.1 0 0 0-0.1 0-0.1 0 0 0z m-709.6-10.9l0.1 0.1s0-0.1-0.1-0.1z m20.9-22z m-38.3-0.9z m28.7-6.4c0.1 0.1 0.1 0.3 0.2 0.4-0.1-0.1-0.2-0.2-0.2-0.4z m721.1-3.6s0 0.1-0.1 0.1c0.1 0 0.1-0.1 0.1-0.1z m-754-21.5z m2-6.6z m0 0z m316.3-2.7z m8.2-1.4z m16.6-1.3z m11-2.1c-0.1 0-0.1 0 0 0-0.1 0-0.1 0 0 0z m81.1-6.5z m-0.1 0z m-437.7-0.8c0 0.2 0 0.5 0.1 0.7-0.1-0.3-0.1-0.5-0.1-0.7z m789.9-0.5c0 0.1 0 0.1 0 0 0 0.1 0 0.1 0 0z m-408.7-2z m78-10.1z m0 0z m8.9-1.2z m0 0zM108.6 225z m471.5-3.1c-0.1 0.7 0 1.4 0.1 2.1-0.1-0.9-0.1-1.7-0.1-2.1z m-445.9-0.6z m0 0z m394.9-0.9z m-0.1 0zM128.8 218z m0 0z m751.9-2.6v0z m-303.6-0.2c0 0.1 0 0.1 0 0 0 0.1 0 0.1 0 0z m-444.8-15.7c0 0.1 0 0.1 0 0 0 0.1 0 0.1 0 0z m739.2-3.9c0 0.1 0 0.1 0 0 0 0.1 0 0.1 0 0z m-470.7-0.5z m496.6-0.9c0 0.1 0 0.1 0.1 0.2 0 0 0-0.1-0.1-0.2z m-2.5-2.3z m-4.2-1.9z m0-0.1z m-495.6-6.7c0.1 0.3 0.2 0.6 0.4 0.8-0.2-0.3-0.4-0.5-0.4-0.8z m0 0z m25.6-0.3z m0-0.1z m-304.1-3.1c-0.2 0.6-0.3 1.1-0.4 1.7 0.1-0.7 0.2-1.3 0.4-1.7z m305.7-5.7c0.3 0.5 0.5 1 0.6 1.3-0.2-0.4-0.4-0.9-0.6-1.3z m467.4 0.3zM143 172.1z m0 0z m-28.8-0.1z m269.7-3.5z m4-5.4z m-232.7-5.4s-0.1 0.1 0 0c-0.1 0.1 0 0 0 0z m0 0z m475.3-1.3zM123 155c0 0.1 0 0.1 0 0 0 0.1 0 0 0 0z m509.4-0.4z m-468.4-10c-0.5 1.1-1.1 1.9-1.4 2.3 0.6-0.7 1.1-1.5 1.4-2.3z m445.9 1z m0.1 0c-0.1 0-0.1 0 0 0-0.1 0-0.1 0 0 0z m265.9-2.4c0.1 0 0.1 0 0 0 0.1 0 0.1 0 0 0z m-475.2-2.9c0.2 0.2 0.3 0.4 0.4 0.5-0.1-0.2-0.2-0.3-0.4-0.5z m432.3-1.6s0 0.1 0 0c0 0.1 0 0 0 0z m33.3-7.8z m0 0z m-477.8-8.1c0.1 0 0.1 0 0 0 0.1 0 0.1 0 0 0z m-36.6-7.3z m-185-4.3z m627.9-3.3zM688.6 104c0 0.1 0 0.1 0 0 0 0.1 0 0.1 0 0z m92-2.6c0.2 0 0.4 0.1 0.5 0.1-0.2-0.1-0.3-0.1-0.5-0.1z m-124.9-4.7c-0.3 0.2-0.5 0.3-0.8 0.5 0.4-0.2 0.6-0.4 0.8-0.5z m156.9-0.3z m-47.5-0.3s0.1 0 0 0c0.1 0 0 0 0 0z m-576.6-2.3z m478.2-3.5c-0.1 0-0.2 0.1-0.3 0.2 0.1-0.1 0.2-0.2 0.3-0.2z m8.5-3z m-455.5-6.7z m551.7-2.9c0.1 0 0.1 0 0 0 0.1 0 0.1 0 0 0z m-11.8-4.5s0 0.1 0 0c0 0.1 0 0 0 0z m-0.1 0c0.1 0 0.1 0 0 0 0.1 0 0.1 0 0 0z m-499.9-1.4c0.3 0 0.7 0 1.2 0.1-0.5-0.1-1.1-0.1-1.7-0.1h0.5z m15-0.5z m0 0z m3.2-1.9z" p-id="1989"></path><path d="M181.6 233.2a75.1 70.4 0 1 0 150.2 0 75.1 70.4 0 1 0-150.2 0Z" fill="#FFE4BD" p-id="1990"></path><path d="M256.7 313.6c-46.9 0-85.1-36.1-85.1-80.4 0-44.4 38.2-80.4 85.1-80.4s85.1 36.1 85.1 80.4c0 44.3-38.2 80.4-85.1 80.4z m0-140.9c-35.9 0-65.1 27.1-65.1 60.4s29.2 60.4 65.1 60.4 65.1-27.1 65.1-60.4c0-33.2-29.2-60.4-65.1-60.4z" p-id="1991"></path><path d="M665.2 233.2a75.1 70.4 0 1 0 150.2 0 75.1 70.4 0 1 0-150.2 0Z" fill="#FFE4BD" p-id="1992"></path><path d="M740.3 313.6c-46.9 0-85.1-36.1-85.1-80.4 0-44.4 38.2-80.4 85.1-80.4 46.9 0 85.1 36.1 85.1 80.4 0 44.3-38.2 80.4-85.1 80.4z m0-140.9c-35.9 0-65.1 27.1-65.1 60.4s29.2 60.4 65.1 60.4 65.1-27.1 65.1-60.4c0-33.2-29.2-60.4-65.1-60.4zM945.2 554.8H833.6c-1.9 0-3.5 1.6-3.5 3.5s1.6 3.5 3.5 3.5h111.5c1.9 0 3.5-1.6 3.5-3.5 0.1-1.9-1.5-3.5-3.4-3.5z" p-id="1993"></path><path d="M945.2 571.9H833.6c-7.5 0-13.5-6.1-13.5-13.5s6.1-13.5 13.5-13.5h111.5c7.5 0 13.5 6.1 13.5 13.5s-6 13.5-13.4 13.5z" p-id="1994"></path><path d="M937.7 697.6L838 662.7c-2.4-0.9-3.7-3.5-2.9-6 0.9-2.4 3.5-3.7 6-2.9l99.7 34.9c2.4 0.9 3.7 3.5 2.9 6-0.9 2.5-3.6 3.8-6 2.9z" p-id="1995"></path><path d="M939.2 707.9c-1.6 0-3.2-0.3-4.8-0.8l-99.7-34.9c-7.6-2.7-11.7-11.1-9-18.7 1.3-3.7 4-6.7 7.5-8.4 3.5-1.7 7.5-1.9 11.2-0.6l99.7 34.9c3.7 1.3 6.7 4 8.4 7.5 1.7 3.5 1.9 7.5 0.6 11.2-2.1 6-7.8 9.8-13.9 9.8z m1.8-19.7z" p-id="1996"></path><path d="M77 554.8h111.5c1.9 0 3.5 1.6 3.5 3.5s-1.6 3.5-3.5 3.5H77c-1.9 0-3.5-1.6-3.5-3.5s1.5-3.5 3.5-3.5z" p-id="1997"></path><path d="M188.5 571.9H77c-7.5 0-13.5-6.1-13.5-13.5s6.1-13.5 13.5-13.5h111.5c7.5 0 13.5 6.1 13.5 13.5s-6 13.5-13.5 13.5z" p-id="1998"></path><path d="M84.5 697.6l99.7-34.9c2.4-0.9 3.7-3.5 2.9-6-0.9-2.4-3.5-3.7-6-2.9l-99.7 34.9c-2.4 0.9-3.7 3.5-2.9 6 0.8 2.5 3.5 3.8 6 2.9z" p-id="1999"></path><path d="M82.9 707.9c-2.2 0-4.3-0.5-6.4-1.5-3.5-1.7-6.2-4.7-7.5-8.4-2.7-7.6 1.4-16 9-18.7l99.7-34.9c3.7-1.3 7.7-1.1 11.2 0.6 3.5 1.7 6.2 4.7 7.5 8.4 2.7 7.6-1.4 16-9 18.7L87.7 707c-1.5 0.6-3.2 0.9-4.8 0.9z" p-id="2000"></path><path d="M331.8 621.7m-29.3 0a29.3 29.3 0 1 0 58.6 0 29.3 29.3 0 1 0-58.6 0Z" p-id="2001"></path><path d="M665.2 621.7m-29.3 0a29.3 29.3 0 1 0 58.6 0 29.3 29.3 0 1 0-58.6 0Z" p-id="2002"></path><path d="M468.8 650.5a42.3 17 0 1 0 84.6 0 42.3 17 0 1 0-84.6 0Z" p-id="2003"></path></svg>